<svg width="64" height="69" viewBox="0 0 64 69" fill="none" xmlns="http://www.w3.org/2000/svg">
<path d="M3.06376 18.1673L1.31376 21.1983C0.669429 22.3143 1.05178 23.7413 2.16776 24.3857L13.2814 30.8023C14.3974 31.4467 15.8244 31.0643 16.4688 29.9483L18.2188 26.9173C18.8631 25.8013 18.4807 24.3743 17.3648 23.73L6.25109 17.3133C5.13511 16.669 3.70809 17.0513 3.06376 18.1673Z" fill="#00730C"/>
<path d="M25.1733 29.4017L20.8333 26.9167L17.9166 31.9684C22.7466 34.7451 22.385 34.6168 22.8283 34.5701C23.5009 35.4313 24.1167 36.3354 24.6716 37.2768C25.4799 35.6567 26.4039 34.0971 27.4366 32.6101C26.6666 31.9451 26.0133 31.4434 25.535 31.0934C25.8697 30.5208 25.7129 29.7875 25.1733 29.4017Z" fill="#00730C"/>
<path d="M13.278 48.6973L2.16434 55.114C1.04836 55.7583 0.666011 57.1853 1.31034 58.3013L3.06034 61.3323C3.70468 62.4483 5.1317 62.8306 6.24768 62.1863L17.3614 55.7696C18.4773 55.1253 18.8597 53.6983 18.2153 52.5823L16.4653 49.5513C15.821 48.4353 14.394 48.053 13.278 48.6973Z" fill="#00730C"/>
<path d="M47.7483 21.8184C41.8333 24.3384 42.2066 24.0934 40.4099 25.1667C36.1166 27.6517 31.8583 30.2884 29.1866 34.1967C28.0345 35.9958 26.9904 37.8619 26.0599 39.785C25.1747 41.6277 24.1036 43.3751 22.8633 45C22.3733 45 22.7933 44.79 17.9399 47.59L20.8333 52.5834L25.1499 50.0984C25.6957 49.6877 25.8375 48.9283 25.4766 48.3484L25.5466 48.4417C28.7741 45.9912 31.6103 43.0645 33.9583 39.7617C38.3799 33.6717 33.7249 37.0667 49.1249 28.1767L63.125 20.115C57.9367 19.4707 52.6697 20.0542 47.7483 21.8184Z" fill="#00730C"/>
<path d="M35.37 41.7918C33.9381 43.7196 32.35 45.5262 30.6217 47.1935C33.235 50.2268 39.5117 54.0651 42.825 55.6518C42.2461 58.5982 41.4067 61.4873 40.3167 64.2851C39.8424 65.256 39.9438 66.4096 40.58 67.2829C41.2163 68.1562 42.2833 68.6062 43.3528 68.4523C44.4224 68.2984 45.3192 67.5658 45.6834 66.5485C46.8341 63.7466 47.7397 60.8502 48.39 57.8918C53.1143 59.4937 58.1401 60.0043 63.09 59.3851L49.5567 51.5685C50.518 44.6288 50.518 37.5898 49.5567 30.6501L44.0034 33.8585C44.4896 38.6723 44.4896 43.523 44.0034 48.3368C35.7667 43.6118 37.4584 44.8718 35.37 41.7918Z" fill="#00730C"/>
<path d="M36.805 16.0201C34.4717 9.51007 22.8633 4.99507 18.3833 8.64674C18.255 11.5867 21.1717 15.2617 25.6867 17.5251C29.8983 19.6251 34.2383 19.8584 36.6533 18.3651C37.9741 18.5344 39.311 18.5344 40.6317 18.3651C41.0167 19.5317 41.39 20.6984 41.705 21.8651L47.0017 19.6251C47.1883 19.6251 47.13 19.6251 47.0017 19.3101C46.43 13.0801 55.8334 8.61174 55.8334 8.57674C56.8819 8.22653 57.6423 7.31361 57.7973 6.21902C57.9522 5.12443 57.4749 4.03634 56.5648 3.40891C55.6546 2.78147 54.4679 2.72255 53.5 3.25674C49.814 5.00621 46.5684 7.56201 44.0033 10.7351C42.7523 7.78657 41.3265 4.91535 39.7333 2.13674C39.2301 1.20555 38.2618 0.620098 37.2034 0.607035C36.145 0.593972 35.1626 1.15535 34.6365 2.07383C34.1104 2.99232 34.1233 4.12374 34.67 5.03007C36.6984 8.57348 38.4347 12.2763 39.8617 16.1017C38.8429 16.1872 37.8178 16.1599 36.805 16.0201Z" fill="#00730C"/>
</svg>
