<svg width="170" height="51" viewBox="0 0 170 51" fill="none" xmlns="http://www.w3.org/2000/svg">
<rect y="0.5" width="170" height="50" rx="5" fill="#00730C"/>
<g clip-path="url(#clip0_3674_20906)">
<g filter="url(#filter0_d_3674_20906)">
<path d="M51.2578 19.3477C51.7432 19.3477 52.1367 18.9542 52.1367 18.4688C52.1367 17.9833 51.7432 17.5898 51.2578 17.5898C50.7724 17.5898 50.3789 17.9833 50.3789 18.4688C50.3789 18.9542 50.7724 19.3477 51.2578 19.3477Z" fill="white"/>
<path d="M54.7734 19.3477C55.2588 19.3477 55.6523 18.9542 55.6523 18.4688C55.6523 17.9833 55.2588 17.5898 54.7734 17.5898C54.288 17.5898 53.8945 17.9833 53.8945 18.4688C53.8945 18.9542 54.288 19.3477 54.7734 19.3477Z" fill="white"/>
<path d="M58.2891 19.3477C58.7745 19.3477 59.168 18.9542 59.168 18.4688C59.168 17.9833 58.7745 17.5898 58.2891 17.5898C57.8037 17.5898 57.4102 17.9833 57.4102 18.4688C57.4102 18.9542 57.8037 19.3477 58.2891 19.3477Z" fill="white"/>
<path d="M54.2586 38.6836C55.7055 38.6836 56.8828 37.5008 56.8828 36.0469V32.5312C56.8828 32.1531 56.641 31.8175 56.2825 31.6976L51.0215 29.9398C50.7639 29.8538 50.4813 29.8916 50.2554 30.0421L48.0182 31.5336C45.6171 30.3943 42.7792 27.5816 41.6505 25.2232L43.1415 22.9867C43.292 22.7609 43.3298 22.4781 43.2438 22.2207L41.486 16.9597C41.3661 16.6011 41.0304 16.3594 40.6523 16.3594H37.1367C35.6828 16.3594 34.5 17.5366 34.5 18.9836C34.5 23.8397 36.708 28.8236 40.558 32.6575C44.4038 36.4871 49.3975 38.6836 54.2586 38.6836ZM37.1367 18.1172H40.0194L41.4403 22.3697L39.9211 24.6484C39.7605 24.8892 39.7288 25.1936 39.8364 25.4623C40.4208 26.9235 41.5905 28.5669 43.1298 30.0898C44.659 31.6026 46.3104 32.7595 47.7799 33.3472C48.0485 33.4547 48.353 33.423 48.5938 33.2625L50.8726 31.7433L55.125 33.1642V36.0469C55.125 36.5397 54.7444 36.9258 54.2586 36.9258C45.0059 36.9258 36.2578 28.2062 36.2578 18.9836C36.2578 18.4978 36.6439 18.1172 37.1367 18.1172Z" fill="white"/>
<path d="M50.9215 28.0698C51.2498 28.2059 51.6279 28.1306 51.8793 27.8793L55.1375 24.6211H58.2891C61.7138 24.6211 64.5 21.8612 64.5 18.4687C64.5 15.0763 61.7138 12.3164 58.2891 12.3164H51.2578C47.8654 12.3164 45.1055 15.0763 45.1055 18.4687C45.1055 21.5628 47.4013 24.1307 50.3789 24.5585V27.2578C50.3789 27.6133 50.5931 27.9337 50.9215 28.0698ZM46.8633 18.4687C46.8633 16.0456 48.8347 14.0742 51.2578 14.0742H58.2891C60.7445 14.0742 62.7422 16.0456 62.7422 18.4687C62.7422 20.8919 60.7445 22.8633 58.2891 22.8633H54.7734C54.5403 22.8633 54.3168 22.9559 54.152 23.1207L52.1367 25.136V23.7422C52.1367 23.2568 51.7432 22.8633 51.2578 22.8633C48.8347 22.8633 46.8633 20.8919 46.8633 18.4687Z" fill="white"/>
</g>
</g>
<path d="M81.79 31.68C80.47 31.68 79.336 31.416 78.388 30.888C77.452 30.348 76.732 29.592 76.228 28.62C75.724 27.636 75.472 26.478 75.472 25.146C75.472 23.814 75.724 22.662 76.228 21.69C76.732 20.718 77.452 19.968 78.388 19.44C79.336 18.9 80.47 18.63 81.79 18.63C82.45 18.63 83.098 18.714 83.734 18.882C84.37 19.05 84.928 19.29 85.408 19.602C85.72 19.806 85.906 20.052 85.966 20.34C86.026 20.616 85.99 20.874 85.858 21.114C85.726 21.342 85.528 21.498 85.264 21.582C85 21.654 84.706 21.582 84.382 21.366C84.01 21.126 83.608 20.952 83.176 20.844C82.744 20.736 82.306 20.682 81.862 20.682C80.578 20.682 79.6 21.072 78.928 21.852C78.256 22.62 77.92 23.718 77.92 25.146C77.92 26.574 78.256 27.678 78.928 28.458C79.6 29.238 80.578 29.628 81.862 29.628C82.318 29.628 82.768 29.574 83.212 29.466C83.656 29.346 84.076 29.166 84.472 28.926C84.796 28.722 85.084 28.656 85.336 28.728C85.588 28.8 85.774 28.95 85.894 29.178C86.026 29.394 86.068 29.634 86.02 29.898C85.972 30.162 85.81 30.396 85.534 30.6C85.054 30.948 84.478 31.218 83.806 31.41C83.146 31.59 82.474 31.68 81.79 31.68ZM90.486 31.68C89.85 31.68 89.28 31.56 88.776 31.32C88.284 31.068 87.894 30.732 87.606 30.312C87.33 29.892 87.192 29.418 87.192 28.89C87.192 28.242 87.36 27.732 87.696 27.36C88.032 26.976 88.578 26.7 89.334 26.532C90.09 26.364 91.104 26.28 92.376 26.28H93.006V25.902C93.006 25.302 92.874 24.87 92.61 24.606C92.346 24.342 91.902 24.21 91.278 24.21C90.93 24.21 90.552 24.252 90.144 24.336C89.748 24.42 89.328 24.564 88.884 24.768C88.596 24.9 88.356 24.918 88.164 24.822C87.972 24.714 87.84 24.552 87.768 24.336C87.708 24.108 87.72 23.88 87.804 23.652C87.9 23.424 88.086 23.256 88.362 23.148C88.914 22.92 89.442 22.758 89.946 22.662C90.462 22.566 90.93 22.518 91.35 22.518C92.634 22.518 93.588 22.818 94.212 23.418C94.836 24.006 95.148 24.924 95.148 26.172V30.492C95.148 31.26 94.8 31.644 94.104 31.644C93.396 31.644 93.042 31.26 93.042 30.492V30.096C92.838 30.588 92.514 30.978 92.07 31.266C91.626 31.542 91.098 31.68 90.486 31.68ZM90.954 30.132C91.542 30.132 92.028 29.928 92.412 29.52C92.808 29.112 93.006 28.596 93.006 27.972V27.576H92.394C91.266 27.576 90.48 27.666 90.036 27.846C89.604 28.014 89.388 28.326 89.388 28.782C89.388 29.178 89.526 29.502 89.802 29.754C90.078 30.006 90.462 30.132 90.954 30.132ZM100.438 31.68C98.4337 31.68 97.4317 30.558 97.4317 28.314V19.8C97.4317 19.044 97.8037 18.666 98.5477 18.666C99.3037 18.666 99.6817 19.044 99.6817 19.8V28.206C99.6817 29.286 100.132 29.826 101.032 29.826C101.128 29.826 101.218 29.826 101.302 29.826C101.386 29.814 101.47 29.802 101.554 29.79C101.722 29.766 101.836 29.814 101.896 29.934C101.956 30.042 101.986 30.27 101.986 30.618C101.986 30.918 101.926 31.152 101.806 31.32C101.686 31.488 101.488 31.59 101.212 31.626C100.96 31.662 100.702 31.68 100.438 31.68ZM106.186 31.68C104.182 31.68 103.18 30.558 103.18 28.314V19.8C103.18 19.044 103.552 18.666 104.296 18.666C105.052 18.666 105.43 19.044 105.43 19.8V28.206C105.43 29.286 105.88 29.826 106.78 29.826C106.876 29.826 106.966 29.826 107.05 29.826C107.134 29.814 107.218 29.802 107.302 29.79C107.47 29.766 107.584 29.814 107.644 29.934C107.704 30.042 107.734 30.27 107.734 30.618C107.734 30.918 107.674 31.152 107.554 31.32C107.434 31.488 107.236 31.59 106.96 31.626C106.708 31.662 106.45 31.68 106.186 31.68ZM119.305 31.68C117.565 31.68 116.233 31.23 115.309 30.33C114.397 29.418 113.941 28.074 113.941 26.298V19.836C113.941 19.056 114.325 18.666 115.093 18.666C115.861 18.666 116.245 19.056 116.245 19.836V26.28C116.245 27.42 116.503 28.278 117.019 28.854C117.547 29.418 118.309 29.7 119.305 29.7C121.333 29.7 122.347 28.56 122.347 26.28V19.836C122.347 19.056 122.731 18.666 123.499 18.666C124.255 18.666 124.633 19.056 124.633 19.836V26.298C124.633 28.074 124.183 29.418 123.283 30.33C122.383 31.23 121.057 31.68 119.305 31.68ZM130.326 31.68C129.81 31.68 129.264 31.626 128.688 31.518C128.112 31.41 127.596 31.224 127.14 30.96C126.888 30.816 126.732 30.642 126.672 30.438C126.612 30.222 126.618 30.024 126.69 29.844C126.774 29.652 126.906 29.514 127.086 29.43C127.278 29.346 127.5 29.364 127.752 29.484C128.232 29.712 128.682 29.874 129.102 29.97C129.522 30.054 129.936 30.096 130.344 30.096C130.92 30.096 131.346 30 131.622 29.808C131.91 29.604 132.054 29.34 132.054 29.016C132.054 28.512 131.682 28.188 130.938 28.044L129.138 27.702C127.614 27.414 126.852 26.622 126.852 25.326C126.852 24.75 127.008 24.252 127.32 23.832C127.644 23.412 128.088 23.088 128.652 22.86C129.216 22.632 129.864 22.518 130.596 22.518C131.652 22.518 132.594 22.752 133.422 23.22C133.65 23.34 133.782 23.508 133.818 23.724C133.866 23.928 133.842 24.126 133.746 24.318C133.662 24.498 133.524 24.63 133.332 24.714C133.14 24.786 132.918 24.762 132.666 24.642C132.294 24.45 131.934 24.312 131.586 24.228C131.25 24.144 130.926 24.102 130.614 24.102C130.026 24.102 129.588 24.204 129.3 24.408C129.024 24.612 128.886 24.882 128.886 25.218C128.886 25.746 129.228 26.07 129.912 26.19L131.712 26.532C132.492 26.676 133.08 26.94 133.476 27.324C133.884 27.708 134.088 28.224 134.088 28.872C134.088 29.748 133.746 30.438 133.062 30.942C132.378 31.434 131.466 31.68 130.326 31.68Z" fill="white"/>
<defs>
<filter id="filter0_d_3674_20906" x="19.5" y="-4.68359" width="66" height="62.3672" filterUnits="userSpaceOnUse" color-interpolation-filters="sRGB">
<feFlood flood-opacity="0" result="BackgroundImageFix"/>
<feColorMatrix in="SourceAlpha" type="matrix" values="0 0 0 0 0 0 0 0 0 0 0 0 0 0 0 0 0 0 127 0" result="hardAlpha"/>
<feOffset dx="3" dy="1"/>
<feGaussianBlur stdDeviation="9"/>
<feComposite in2="hardAlpha" operator="out"/>
<feColorMatrix type="matrix" values="0 0 0 0 0 0 0 0 0 0 0 0 0 0 0 0 0 0 0.2 0"/>
<feBlend mode="normal" in2="BackgroundImageFix" result="effect1_dropShadow_3674_20906"/>
<feBlend mode="normal" in="SourceGraphic" in2="effect1_dropShadow_3674_20906" result="shape"/>
</filter>
<clipPath id="clip0_3674_20906">
<rect width="30" height="30" fill="white" transform="translate(34.5 10.5)"/>
</clipPath>
</defs>
</svg>
