<svg width="40" height="34" viewBox="0 0 40 34" fill="none" xmlns="http://www.w3.org/2000/svg">
<rect width="40" height="34" rx="10" fill="#00730C"/>
<path d="M21.1719 12.8984C21.4955 12.8984 21.7578 12.6361 21.7578 12.3125C21.7578 11.9889 21.4955 11.7266 21.1719 11.7266C20.8483 11.7266 20.5859 11.9889 20.5859 12.3125C20.5859 12.6361 20.8483 12.8984 21.1719 12.8984Z" fill="white"/>
<path d="M23.5156 12.8984C23.8392 12.8984 24.1016 12.6361 24.1016 12.3125C24.1016 11.9889 23.8392 11.7266 23.5156 11.7266C23.192 11.7266 22.9297 11.9889 22.9297 12.3125C22.9297 12.6361 23.192 12.8984 23.5156 12.8984Z" fill="white"/>
<path d="M25.8594 12.8984C26.183 12.8984 26.4453 12.6361 26.4453 12.3125C26.4453 11.9889 26.183 11.7266 25.8594 11.7266C25.5358 11.7266 25.2734 11.9889 25.2734 12.3125C25.2734 12.6361 25.5358 12.8984 25.8594 12.8984Z" fill="white"/>
<path d="M23.1724 25.7891C24.137 25.7891 24.9219 25.0005 24.9219 24.0312V21.6875C24.9219 21.4354 24.7607 21.2116 24.5216 21.1318L21.0143 19.9599C20.8426 19.9025 20.6542 19.9277 20.5036 20.0281L19.0121 21.0224C17.4114 20.2629 15.5195 18.3877 14.767 16.8155L15.761 15.3245C15.8613 15.1739 15.8865 14.9854 15.8292 14.8138L14.6573 11.3065C14.5774 11.0674 14.3536 10.9062 14.1016 10.9062H11.7578C10.7886 10.9062 10 11.6911 10 12.6557C10 15.8931 11.472 19.2157 14.0387 21.7716C16.6025 24.3248 19.9316 25.7891 23.1724 25.7891ZM11.7578 12.0781H13.6796L14.6268 14.9131L13.6141 16.4323C13.507 16.5928 13.4859 16.7957 13.5576 16.9749C13.9472 17.949 14.727 19.0446 15.7532 20.0598C16.7727 21.0684 17.8736 21.8396 18.8532 22.2315C19.0323 22.3031 19.2354 22.282 19.3959 22.175L20.915 21.1622L23.75 22.1095V24.0312C23.75 24.3598 23.4963 24.6172 23.1724 24.6172C17.0039 24.6172 11.1719 18.8041 11.1719 12.6557C11.1719 12.3318 11.4293 12.0781 11.7578 12.0781Z" fill="white"/>
<path d="M20.9477 18.7132C21.1666 18.8039 21.4186 18.7537 21.5862 18.5862L23.7583 16.4141H25.8594C28.1425 16.4141 30 14.5741 30 12.3125C30 10.0509 28.1425 8.21094 25.8594 8.21094H21.1719C18.9103 8.21094 17.0703 10.0509 17.0703 12.3125C17.0703 14.3752 18.6009 16.0871 20.5859 16.3723V18.1719C20.5859 18.4089 20.7287 18.6225 20.9477 18.7132ZM18.2422 12.3125C18.2422 10.6971 19.5564 9.38281 21.1719 9.38281H25.8594C27.4963 9.38281 28.8281 10.6971 28.8281 12.3125C28.8281 13.9279 27.4963 15.2422 25.8594 15.2422H23.5156C23.3602 15.2422 23.2112 15.3039 23.1013 15.4138L21.7578 16.7573V15.8281C21.7578 15.5045 21.4955 15.2422 21.1719 15.2422C19.5564 15.2422 18.2422 13.9279 18.2422 12.3125Z" fill="white"/>
</svg>
