<svg width="25" height="25" viewBox="0 0 25 25" fill="none" xmlns="http://www.w3.org/2000/svg">
<path d="M16.199 13.5376L14.1052 15.6385C13.2561 16.4906 11.7622 16.5089 10.8947 15.6385L8.80083 13.5376L1.28052 21.0824C1.56045 21.2118 1.86909 21.2891 2.19722 21.2891H22.8027C23.1308 21.2891 23.4394 21.2119 23.7192 21.0824L16.199 13.5376Z" fill="white"/>
<path d="M22.8027 3.71094H2.19724C1.86912 3.71094 1.56047 3.78818 1.28064 3.91763L9.31663 11.9803C9.31716 11.9808 9.3178 11.9809 9.31833 11.9814C9.31887 11.982 9.31897 11.9827 9.31897 11.9827L11.9319 14.6043C12.2094 14.8818 12.7906 14.8818 13.0681 14.6043L15.6805 11.9832C15.6805 11.9832 15.6812 11.982 15.6817 11.9814C15.6817 11.9814 15.6829 11.9808 15.6834 11.9803L23.7192 3.91758C23.4394 3.78809 23.1308 3.71094 22.8027 3.71094Z" fill="white"/>
<path d="M0.233691 4.94201C0.0888672 5.23488 0 5.55998 0 5.90822V19.0918C0 19.4401 0.0887695 19.7652 0.233643 20.058L7.76699 12.5003L0.233691 4.94201Z" fill="white"/>
<path d="M24.7661 4.94187L17.2329 12.5002L24.7661 20.0581C24.911 19.7652 24.9998 19.4401 24.9998 19.0918V5.90818C24.9998 5.55984 24.911 5.23474 24.7661 4.94187Z" fill="white"/>
</svg>
