<svg width="71" height="71" viewBox="0 0 71 71" fill="none" xmlns="http://www.w3.org/2000/svg">
<path d="M19.7073 50.8113C21.1925 47.7883 19.3169 43.9238 18.1247 42.0546H12.4629C12.1728 42.0546 11.8946 42.1698 11.6895 42.3749C11.4844 42.58 11.3691 42.8582 11.3691 43.1483C11.3691 47.676 15.2573 50.9056 19.7073 50.8113Z" fill="#00730C"/>
<path d="M38.7205 42.0546H25.5811C26.4823 44.2023 27.0465 47.7548 26.5962 50.802C29.724 50.7987 32.6628 50.7976 32.8477 50.8046C33.1152 50.8148 37.2976 49.4208 39.0575 48.8522C39.2775 48.7812 39.4693 48.6422 39.6053 48.4552C39.7413 48.2683 39.8145 48.043 39.8143 47.8118V43.1483C39.8143 42.8582 39.6991 42.58 39.4939 42.3749C39.2888 42.1698 39.0106 42.0546 38.7205 42.0546Z" fill="#00730C"/>
<path d="M61.7428 30.0396C55.2064 29.6471 50.7506 36.438 53 42.0546H51.9063C51.6162 42.0546 51.338 42.1698 51.1329 42.3749C50.9277 42.58 50.8125 42.8582 50.8125 43.1483V47.5233C50.8125 47.8134 50.9277 48.0916 51.1329 48.2967C51.338 48.5018 51.6162 48.6171 51.9063 48.6171H61.2031C62.4624 48.6157 63.7083 48.3587 64.8653 47.8618C66.0224 47.3649 67.0666 46.6384 67.9347 45.7262C68.8028 44.814 69.4768 43.7351 69.9158 42.5548C70.3548 41.3746 70.5497 40.1175 70.4888 38.8597C70.2601 34.1444 66.4552 30.3226 61.7428 30.0396ZM61.2031 44.2421C60.2297 44.2421 59.2781 43.9534 58.4687 43.4126C57.6593 42.8717 57.0284 42.1031 56.6559 41.2037C56.2834 40.3043 56.1859 39.3147 56.3758 38.36C56.5657 37.4052 57.0345 36.5282 57.7228 35.8399C58.4112 35.1516 59.2882 34.6828 60.2429 34.4929C61.1977 34.303 62.1873 34.4004 63.0866 34.773C63.986 35.1455 64.7547 35.7763 65.2955 36.5857C65.8363 37.3951 66.125 38.3467 66.125 39.3202C66.1236 40.6251 65.6045 41.8762 64.6818 42.7989C63.7591 43.7216 62.508 44.2406 61.2031 44.2421Z" fill="#00730C"/>
<path d="M47.5252 45.3438H43.155C42.8652 45.3434 42.5873 45.228 42.3824 45.023C42.1776 44.8179 42.0625 44.5399 42.0625 44.25V12.5313C42.0621 12.2419 42.1766 11.9642 42.3807 11.7592C42.5848 11.5541 42.862 11.4384 43.1513 11.4375C47.2362 11.4353 51.0297 15.1653 50.8028 19.3535V32.916C50.8113 33.5064 48.7448 39.3578 48.6178 39.8827V44.25C48.6178 44.5399 48.5027 44.8179 48.2978 45.023C48.093 45.228 47.8151 45.3434 47.5252 45.3438Z" fill="#00730C"/>
<path d="M42.0625 48.625V52.3984C35.0541 50.2656 27.7577 56.7945 30.7012 64.9477C31.3913 66.8695 32.787 68.4566 34.6049 69.3867C41.6179 72.9552 48.625 67.916 48.625 61.2715V48.625C48.625 48.3349 48.5097 48.0567 48.3046 47.8516C48.0995 47.6465 47.8213 47.5312 47.5312 47.5312H43.1562C42.8662 47.5312 42.588 47.6465 42.3828 47.8516C42.1777 48.0567 42.0625 48.3349 42.0625 48.625ZM39.3281 66.1934C38.3547 66.1934 37.4031 65.9047 36.5937 65.3639C35.7843 64.8231 35.1534 64.0544 34.7809 63.155C34.4084 62.2557 34.3109 61.266 34.5008 60.3113C34.6907 59.3565 35.1595 58.4795 35.8478 57.7912C36.5362 57.1029 37.4131 56.6341 38.3679 56.4442C39.3226 56.2543 40.3123 56.3517 41.2116 56.7243C42.111 57.0968 42.8797 57.7276 43.4205 58.537C43.9613 59.3464 44.25 60.298 44.25 61.2715C44.2485 62.5764 43.7295 63.8275 42.8068 64.7502C41.8841 65.6729 40.633 66.1919 39.3281 66.1934Z" fill="#00730C"/>
<path d="M17.8564 36.9657C19.3521 41.0466 22.375 42.5188 22.375 48.625C22.375 56.6119 11.4375 55.7261 11.4375 69.4062C11.4375 70.8117 13.625 70.7984 13.625 69.4062C13.625 56.9193 24.5625 58.9973 24.5625 48.625C24.5625 41.7971 21.4545 40.2419 20.002 36.1699C19.4766 34.6992 17.3818 35.6707 17.8564 36.9657Z" fill="#00730C"/>
<path d="M36.6947 14.7803C36.4981 14.7 32.7192 13.1775 29.0994 12.9581C30.6454 9.74943 31.1942 5.87195 31.2225 5.66592C31.2448 5.48337 31.2212 5.29813 31.1537 5.12704C31.0862 4.95595 30.9771 4.80443 30.8362 4.68625C30.6953 4.56807 30.527 4.48698 30.3468 4.45034C30.1666 4.41371 29.9801 4.42269 29.8042 4.47646C29.602 4.54141 25.7282 5.80428 22.814 7.96279C21.936 4.51092 19.8645 1.1877 19.7536 1.0116C19.6534 0.85733 19.5162 0.730547 19.3545 0.642777C19.1929 0.555008 19.0118 0.509033 18.8279 0.509033C18.6439 0.509033 18.4629 0.555008 18.3012 0.642777C18.1395 0.730547 18.0023 0.85733 17.9021 1.0116C17.7891 1.19139 15.6341 4.64832 14.7895 8.17566C11.898 6.09521 8.17419 4.88129 7.97609 4.81758C7.80021 4.7638 7.61369 4.75482 7.43346 4.79146C7.25323 4.82809 7.08502 4.90919 6.9441 5.02737C6.80319 5.14554 6.69403 5.29706 6.62656 5.46815C6.55909 5.63924 6.53544 5.82448 6.55777 6.00703C6.58661 6.2173 7.15755 10.2512 8.77726 13.4958C5.22558 13.7617 1.59378 15.2254 1.4006 15.3039C1.23125 15.3758 1.08254 15.4889 0.968014 15.6328C0.853483 15.7768 0.776754 15.9471 0.744802 16.1283C0.712851 16.3095 0.72669 16.4958 0.785062 16.6703C0.843434 16.8447 0.944487 17.0018 1.07904 17.1273C1.2364 17.2699 4.26745 19.9927 7.59423 21.4368C5.04361 23.9233 3.20105 27.3789 3.10398 27.5636C3.02042 27.7275 2.97917 27.9097 2.98397 28.0936C2.98878 28.2775 3.03948 28.4573 3.13147 28.6166C3.22346 28.776 3.35382 28.9098 3.51069 29.0059C3.66757 29.102 3.84598 29.1573 4.0297 29.1669C4.24189 29.1751 8.31365 29.3133 11.7901 28.2815C11.4347 31.8254 12.2453 35.6567 12.2892 35.8601C12.3305 36.0394 12.4161 36.2054 12.538 36.3432C12.6599 36.481 12.8143 36.5861 12.9871 36.649C13.16 36.7119 13.3459 36.7306 13.5278 36.7034C13.7097 36.6762 13.882 36.604 14.0289 36.4933C14.1968 36.3631 17.4045 33.8509 19.4044 30.8255C21.4102 33.7691 24.4942 36.1836 24.6582 36.3114C24.8052 36.4221 24.9774 36.4944 25.1594 36.5216C25.3413 36.5488 25.5272 36.5301 25.7 36.4671C25.8729 36.4042 26.0273 36.2991 26.1492 36.1613C26.2711 36.0235 26.3566 35.8574 26.398 35.6781C26.4428 35.4706 27.2867 31.4847 26.8736 27.8819C30.302 28.8473 34.2154 28.7144 34.4236 28.7064C34.6074 28.6968 34.7857 28.6414 34.9426 28.5453C35.0994 28.4491 35.2298 28.3153 35.3218 28.156C35.4138 27.9967 35.4645 27.8169 35.4693 27.633C35.4741 27.4491 35.4329 27.2669 35.3494 27.103C35.2502 26.9152 33.3333 23.3199 30.7009 20.825C33.9481 19.3609 36.8618 16.7433 37.0158 16.6036C37.1504 16.4781 37.2515 16.321 37.3099 16.1466C37.3683 15.9722 37.3822 15.7859 37.3502 15.6047C37.3183 15.4236 37.2416 15.2532 37.1272 15.1093C37.0127 14.9653 36.864 14.8522 36.6947 14.7803ZM18.8279 24.5639C17.7462 24.5639 16.6889 24.2431 15.7896 23.6422C14.8903 23.0413 14.1893 22.1872 13.7754 21.1879C13.3615 20.1886 13.2532 19.0891 13.4642 18.0282C13.6752 16.9674 14.1961 15.9929 14.9609 15.2281C15.7257 14.4633 16.7001 13.9425 17.761 13.7314C18.8218 13.5204 19.9214 13.6287 20.9207 14.0427C21.9199 14.4566 22.774 15.1575 23.375 16.0568C23.9759 16.9562 24.2966 18.0135 24.2966 19.0951C24.2966 20.5455 23.7204 21.9365 22.6949 22.9621C21.6693 23.9877 20.2783 24.5639 18.8279 24.5639Z" fill="#00730C"/>
</svg>
