<svg width="71" height="71" viewBox="0 0 71 71" fill="none" xmlns="http://www.w3.org/2000/svg">
<g clip-path="url(#clip0_3633_3306)">
<path d="M41.9851 12.1595C39.5604 9.84487 35.7184 9.93406 33.4044 12.3587C31.0898 14.7833 31.1784 18.6248 33.603 20.9394C36.0277 23.254 39.8691 23.1648 42.1837 20.7402C44.4983 18.3161 44.4092 14.4741 41.9851 12.1595Z" fill="#00730C"/>
<path d="M52.2129 32.4094C52.2129 31.0919 51.2676 29.996 50.019 29.7594C50.2705 30.4083 50.4478 31.1501 50.4478 31.9538C50.4478 33.188 50.0291 34.2781 49.5667 35.1059C51.0326 35.0775 52.2129 33.8823 52.2129 32.4094Z" fill="#00730C"/>
<path d="M68.391 56.4035H66.8327C65.7934 56.4035 64.7963 55.9906 64.0614 55.2558L63.2539 54.4483V50.6917C63.6871 50.0279 64.1656 49.0457 64.1656 47.9498C64.1656 45.9487 62.5703 44.3268 62.5703 44.3268C62.5703 44.3268 60.9751 45.9487 60.9751 47.9498C60.9751 49.0463 61.4536 50.0279 61.8867 50.6917V51.6274C61.7677 51.4068 61.6181 51.1959 61.4317 51.0089C60.416 49.9937 58.6781 50.085 58.6781 50.085C58.6781 50.085 58.5863 51.8234 59.6015 52.8386C60.2867 53.5238 61.2993 53.7043 61.8867 53.7497V54.4483L61.0793 55.2558C60.3444 55.9906 59.3473 56.4035 58.308 56.4035H55.485C54.4457 56.4035 53.4486 55.9906 52.7138 55.2558L52.4772 55.0186C51.7845 54.326 50.6609 54.326 49.9682 55.0186L49.7316 55.2558C48.9967 55.9906 47.9996 56.4035 46.9604 56.4035H38.7145C40.1186 55.6616 40.8443 54.005 40.3605 52.4311L36.5911 40.5734C36.2151 39.3489 35.178 38.4431 33.9139 38.2353L33.2191 38.1211L27.5773 44.0309L30.7549 44.5543L33.9101 54.413C34.1841 55.3049 34.7945 55.9997 35.5588 56.4035H23.4789C25.1831 55.503 25.7775 53.3764 24.8216 51.7288L18.1036 40.1515L23.2888 45.702L32.3806 36.1776L29.4225 28.9491L34.5211 36.2155C34.7118 36.4874 34.9505 36.7213 35.2261 36.9061L44.7964 43.3319C46.0365 44.165 47.7123 43.8307 48.5417 42.5959C49.3519 41.39 49.0565 39.7692 47.896 38.9179V34.6956C48.3286 34.0318 48.8071 33.0502 48.8071 31.9538C48.8071 29.9526 47.2124 28.3307 47.2124 28.3307C47.2124 28.3307 45.6172 29.9526 45.6172 31.9538C45.6172 33.0502 46.0957 34.0318 46.5289 34.6961V37.9929L38.652 32.7041L33.8412 25.8479L37.1375 28.8311L39.3597 30.75L44.4006 34.1348C44.1518 33.4892 43.9766 32.7516 43.9766 31.9538C43.9766 31.1302 44.1635 30.3703 44.4247 29.7102H40.7856L30.6342 21.4809C28.9963 19.9172 26.4008 19.9775 24.8376 21.6155L10.9142 36.4195C9.93843 37.4567 9.65912 39.0434 10.4143 40.3443C11.4909 42.2002 14.6921 47.7175 16.0443 50.0482H6.26252C4.40239 50.0482 2.83066 51.5184 2.80716 53.3785C2.79061 54.6891 3.52227 55.8304 4.60106 56.4035H2.55081C1.38977 56.4035 0.447161 57.3754 0.502169 58.553C0.554507 59.6564 1.50566 60.505 2.61009 60.505H68.4492C69.6146 60.505 70.5534 59.533 70.4979 58.3554C70.4456 57.2521 69.4955 56.4035 68.391 56.4035Z" fill="#00730C"/>
</g>
<defs>
<clipPath id="clip0_3633_3306">
<rect width="70" height="70" fill="white" transform="translate(0.5 0.5)"/>
</clipPath>
</defs>
</svg>
