<svg width="71" height="63" viewBox="0 0 71 63" fill="none" xmlns="http://www.w3.org/2000/svg">
<path d="M29.3475 52.0763C29.3475 46.4226 24.7473 41.8224 19.0936 41.8224C13.4399 41.8224 8.83984 46.4227 8.83984 52.0763C8.83984 57.7299 13.4399 62.3302 19.0936 62.3302C24.9721 62.3302 29.3475 57.5143 29.3475 52.0763ZM17.0428 52.0763C17.0428 50.9434 17.961 50.0255 19.0936 50.0255C20.2262 50.0255 21.1444 50.9434 21.1444 52.0763C21.1444 53.2089 20.2262 54.1271 19.0936 54.1271C17.961 54.1271 17.0428 53.2089 17.0428 52.0763Z" fill="#00730C"/>
<path d="M62.2967 45.924C57.7726 45.924 54.0938 49.6029 54.0938 54.1271C54.0938 58.5356 57.6627 62.3302 62.2967 62.3302C66.8209 62.3302 70.4999 58.6512 70.4999 54.1271C70.4999 49.494 66.7236 45.924 62.2967 45.924Z" fill="#00730C"/>
<path d="M62.2968 41.8224C63.4562 41.8224 64.5561 42.0257 65.6454 42.3438C64.4612 39.3763 61.9462 37.0326 58.704 36.1848C31.7805 29.2207 35.5832 30.2486 33.9459 29.8261C29.8103 28.7866 25.0559 30.5711 22.7347 34.2862L20.4727 37.8603C27.7332 38.5663 33.4493 44.6337 33.4493 52.0763C33.4493 54.2156 32.9432 56.3128 32.0272 58.2286H50.7165C50.7113 58.2133 50.7024 58.1998 50.6972 58.1846C50.2406 56.967 49.9923 55.569 49.9923 54.127C49.9921 47.3418 55.5116 41.8224 62.2968 41.8224ZM39.6015 47.9747C39.6015 49.1082 38.6843 50.0255 37.5507 50.0255C36.4172 50.0255 35.5 49.1082 35.5 47.9747V43.8731C35.5 42.7396 36.4172 41.8224 37.5507 41.8224C38.6843 41.8224 39.6015 42.7396 39.6015 43.8731V47.9747ZM47.9414 47.9747C47.9414 49.1082 47.0241 50.0255 45.8906 50.0255C44.757 50.0255 43.8398 49.1082 43.8398 47.9747V43.8731C43.8398 42.7396 44.757 41.8224 45.8906 41.8224C47.0241 41.8224 47.9414 42.7396 47.9414 43.8731V47.9747Z" fill="#00730C"/>
<path d="M56.1447 29.5177C56.1447 30.6512 57.1985 31.5685 58.332 31.5685H66.3983C67.5318 31.5685 68.4491 30.6512 68.4491 29.5177C68.4491 28.3842 67.5318 27.4669 66.3983 27.4669H58.332C57.1985 27.4669 56.1447 28.3842 56.1447 29.5177Z" fill="#00730C"/>
<path d="M54.5058 23.3654C55.074 24.3494 56.3316 24.6802 57.3076 24.1164L64.4015 20.0148C65.3829 19.448 65.7193 18.1944 65.1525 17.2131C64.5817 16.2277 63.3261 15.8973 62.3507 16.4621L55.2568 20.5636C54.2754 21.1305 53.939 22.3842 54.5058 23.3654Z" fill="#00730C"/>
<path d="M52.8633 18.0978L56.8262 10.9942C57.393 10.0128 57.0566 8.75911 56.0752 8.19241C55.0938 7.62571 53.8382 7.95808 53.2734 8.94341L49.3105 16.047C48.7437 17.0284 49.0801 18.2821 50.0615 18.8488C51.0394 19.4137 52.296 19.08 52.8633 18.0978Z" fill="#00730C"/>
<path d="M1.90184 4.66553L13.0856 8.48518L16.0714 38.0546C18.6433 37.4999 19.7568 37.7982 20.1717 37.8298L17.0328 6.75295C16.9506 5.94987 16.4059 5.26901 15.6408 5.01457L3.19944 0.776292C2.11799 0.415764 0.964357 0.998597 0.605881 2.07211C0.247541 3.14754 0.828322 4.3091 1.90184 4.66553Z" fill="#00730C"/>
<path d="M45.3558 24.2967C41.3443 23.2231 38.6862 22.5603 36.9559 22.1597C35.1515 21.6892 33.2388 22.0856 31.7388 23.2452C30.9408 23.8623 30.3349 24.6513 29.9266 25.5348C31.491 25.3616 33.0981 25.3844 34.9452 25.8487L49.856 29.6439L49.8916 29.6589C49.6353 27.0846 47.8685 24.909 45.3558 24.2967Z" fill="#00730C"/>
</svg>
