<svg width="25" height="25" viewBox="0 0 25 25" fill="none" xmlns="http://www.w3.org/2000/svg">
<path d="M12.5 0C8.10718 0 4.44336 3.53857 4.44336 8.05664C4.44336 9.77549 4.95986 11.3082 5.95112 12.7444L11.8834 22.0013C12.1712 22.4513 12.8293 22.4504 13.1166 22.0013L19.0746 12.7129C20.0445 11.3418 20.5566 9.73179 20.5566 8.05664C20.5566 3.61421 16.9424 0 12.5 0ZM12.5 11.7188C10.4808 11.7188 8.83789 10.0758 8.83789 8.05664C8.83789 6.03745 10.4808 4.39453 12.5 4.39453C14.5192 4.39453 16.1621 6.03745 16.1621 8.05664C16.1621 10.0758 14.5192 11.7188 12.5 11.7188Z" fill="white"/>
<path d="M14.7482 22.7317L14.7483 22.7315L18.3409 17.1148C19.8699 17.4833 21.0908 17.9902 21.9318 18.5864C22.8052 19.2056 23.2363 19.8953 23.2363 20.6055C23.2363 21.2271 22.9307 21.7955 22.3525 22.3096C21.7717 22.826 20.9305 23.2726 19.9064 23.6377C17.8598 24.3673 15.1432 24.75 12.5 24.75C9.8568 24.75 7.14025 24.3673 5.09362 23.6377C4.06952 23.2726 3.22833 22.826 2.64746 22.3096C2.06929 21.7955 1.76367 21.2271 1.76367 20.6055C1.76367 19.8958 2.19422 19.2066 3.06643 18.5877C3.90627 17.9917 5.12553 17.485 6.65255 17.1164L10.251 22.7331L10.2511 22.7331C11.2993 24.3684 13.695 24.3737 14.7482 22.7317Z" stroke="white" stroke-width="0.5"/>
</svg>
