<svg width="30" height="30" viewBox="0 0 30 30" fill="none" xmlns="http://www.w3.org/2000/svg">
<path d="M28.8282 7.96869H1.17194C0.525043 7.96869 9.72748e-05 7.44365 9.72748e-05 6.79685C9.72748e-05 6.14994 0.525141 5.625 1.17194 5.625H28.8282C29.4751 5.625 30 6.15004 30 6.79685C30 7.44365 29.475 7.96869 28.8282 7.96869Z" fill="#00730C"/>
<path d="M1.17194 13.8281H28.8282C29.4751 13.8281 30 14.3532 30 15C30 15.6468 29.475 16.1718 28.8282 16.1718C28.1814 16.1718 1.17194 16.1718 1.17194 16.1718C0.525043 16.1718 9.72748e-05 15.6468 9.72748e-05 15C9.72748e-05 14.3532 0.525043 13.8281 1.17194 13.8281Z" fill="#00730C"/>
<path d="M1.17194 22.0312H17.1094C17.7563 22.0312 18.2812 22.5563 18.2812 23.2031C18.2812 23.85 17.7562 24.3749 17.1094 24.3749H1.17194C0.525038 24.3749 9.15527e-05 23.8499 9.15527e-05 23.2031C-5.72205e-06 22.5562 0.525038 22.0312 1.17194 22.0312Z" fill="#00730C"/>
</svg>
