<svg width="67" height="68" viewBox="0 0 67 68" fill="none" xmlns="http://www.w3.org/2000/svg">
<circle cx="33.5" cy="34" r="33.5" fill="#00730C"/>
<path opacity="0.1" d="M60.8027 45.9209C60.8027 64.4224 39.8499 58.7306 21.3484 58.7306C2.84685 58.7306 6.48765 40.9616 6.48765 22.4601C6.48765 3.95853 20.3423 42.5869 38.8439 42.5869C57.3454 42.5869 60.8027 27.4194 60.8027 45.9209Z" fill="white"/>
<g clip-path="url(#clip0_486_3970)">
<g filter="url(#filter0_d_486_3970)">
<path d="M29.7294 47.9054L29.6459 46.4687C29.6449 46.4527 29.6433 46.4366 29.6411 46.4207C29.4448 45.0058 28.8607 43.6728 27.9536 42.5693C27.0464 41.4659 25.8516 40.635 24.5014 40.1686L24.0344 40.0061C23.3873 39.7799 22.7993 39.4111 22.3138 38.927L20.0435 36.6566L19.2666 34.0275C19.0805 33.3375 18.6894 32.7201 18.1451 32.257C17.6007 31.7939 16.9287 31.5068 16.2177 31.4337L16.0902 31.008C16.0888 31.0033 16.0873 30.9982 16.0858 30.994C15.7239 29.8879 14.5202 29.1758 13.2935 29.2571L13.2548 29.129C13.0211 28.3433 12.4933 27.6781 11.7814 27.2718C11.0695 26.8656 10.2283 26.7495 9.43297 26.9479C9.28801 26.9839 9.16226 27.0739 9.08142 27.1995C9.00057 27.325 8.97074 27.4768 8.99801 27.6236L11.4856 41.011C11.4907 41.0383 11.4977 41.0652 11.5066 41.0915C12.0908 42.8091 13.2091 44.2947 14.698 45.3312L20.1308 49.0745C20.1406 49.0816 20.1515 49.0884 20.1624 49.0948C20.5463 49.3238 20.8325 49.6861 20.9664 50.1126L21.3795 55.6937C21.3879 55.8088 21.4302 55.9188 21.5009 56.0099C21.5716 56.101 21.6677 56.1693 21.777 56.206L21.8888 56.2435C24.3319 57.0707 26.9765 57.089 29.4308 56.2959L29.7034 56.2086C29.8216 56.1707 29.9247 56.0962 29.9979 55.9959C30.0711 55.8956 30.1105 55.7747 30.1105 55.6506V52.5274C30.1105 51.2579 29.9989 49.8858 29.7589 48.2075C29.7453 48.1076 29.735 48.0059 29.7294 47.9054ZM18.1363 34.337C18.1376 34.3422 18.139 34.3473 18.1406 34.3523L18.4004 35.2312C18.0364 35.0313 17.6419 34.8927 17.2329 34.8211L16.5994 32.7071C16.9706 32.8301 17.3054 33.0434 17.5737 33.328C17.8419 33.6125 18.0353 33.9592 18.1363 34.337ZM14.97 31.3527L16.0061 34.8097C15.6729 34.8591 15.3478 34.9526 15.0393 35.088L13.6465 30.4368C14.2184 30.4931 14.79 30.8136 14.97 31.3527ZM28.9388 55.2221C26.8474 55.8684 24.6094 55.8661 22.5193 55.2156L22.1305 49.963C22.1277 49.9236 22.1208 49.8847 22.11 49.8467C21.905 49.1168 21.4299 48.4921 20.7813 48.0995L15.3642 44.3673C14.0939 43.4825 13.1366 42.218 12.6298 40.7552L10.2648 28.026C10.6877 28.0391 11.0957 28.1851 11.4309 28.4433C11.7661 28.7015 12.0115 29.0587 12.1321 29.4642L14.0187 35.7543C13.9761 35.7933 13.9342 35.8334 13.893 35.8744C13.8371 35.9304 13.7931 35.9972 13.7636 36.0707C13.7342 36.1442 13.72 36.2228 13.7218 36.302C13.7236 36.3811 13.7415 36.4591 13.7742 36.5312C13.807 36.6032 13.8541 36.6679 13.9126 36.7213L16.6339 39.2071C17.4264 39.9313 18.1512 40.7262 18.7993 41.5821C18.8455 41.644 18.9035 41.6962 18.97 41.7357C19.0365 41.7751 19.1101 41.801 19.1866 41.8118C19.2631 41.8227 19.341 41.8183 19.4158 41.7989C19.4907 41.7795 19.5609 41.7455 19.6225 41.6989C19.6841 41.6523 19.7359 41.5939 19.7749 41.5271C19.8139 41.4604 19.8393 41.3866 19.8496 41.31C19.8599 41.2334 19.855 41.1555 19.8351 41.0809C19.8152 41.0062 19.7807 40.9362 19.7337 40.8749C19.0425 39.9621 18.2695 39.1143 17.4244 38.342L15.2089 36.3188C15.7117 36.0128 16.3026 35.8843 16.887 35.9539C17.4715 36.0235 18.0156 36.2873 18.4324 36.7029L21.4851 39.7555C22.0956 40.3645 22.8351 40.8284 23.6491 41.113L24.1161 41.2755C25.2588 41.6701 26.2706 42.3724 27.04 43.3049C27.8094 44.2375 28.3067 45.3642 28.4771 46.5611L28.5591 47.973C28.5668 48.1059 28.5803 48.2407 28.5993 48.3734C28.8307 49.9955 28.9386 51.3154 28.9386 52.5277L28.9388 55.2221Z" fill="white"/>
</g>
<g filter="url(#filter1_d_486_3970)">
<path d="M57.5669 26.9479C56.7717 26.7496 55.9306 26.8655 55.2188 27.2716C54.5069 27.6778 53.979 28.3428 53.7452 29.1283L53.7061 29.2575C52.4797 29.1764 51.2758 29.8883 50.9137 30.9944C50.9122 30.999 50.9107 31.0037 50.9093 31.0084L50.7822 31.4337C50.0713 31.5068 49.3993 31.7938 48.8549 32.2569C48.3106 32.7199 47.9195 33.3372 47.7333 34.0271L46.9563 36.6563L44.6861 38.9267C44.2006 39.4107 43.6127 39.7795 42.9656 40.0058L42.4984 40.1683C41.1482 40.6346 39.9534 41.4655 39.0463 42.569C38.1392 43.6724 37.5551 45.0054 37.3588 46.4203C37.3566 46.4362 37.355 46.4523 37.354 46.4684L37.2705 47.9055C37.2649 48.0056 37.2546 48.1072 37.2404 48.2076C37.0008 49.8858 36.8888 51.2584 36.8888 52.5274V55.6502C36.8888 55.7724 36.9271 55.8916 36.9982 55.9911C37.0693 56.0905 37.1698 56.1652 37.2855 56.2047C39.7651 57.0456 42.4498 57.064 44.9407 56.257L45.0933 56.2072C45.2017 56.1718 45.2975 56.1056 45.3688 56.0166C45.4401 55.9276 45.4839 55.8197 45.4948 55.7061L46.0311 50.118C46.1642 49.689 46.4512 49.3244 46.8369 49.0944C46.8478 49.0881 46.8582 49.0812 46.8685 49.0741L52.3033 45.3302C53.7915 44.2939 54.9093 42.8088 55.4933 41.0919C55.5022 41.0656 55.5092 41.0387 55.5143 41.0114L58.0019 27.6236C58.0292 27.4768 57.9993 27.3251 57.9185 27.1995C57.8376 27.0739 57.7119 26.9839 57.5669 26.9479ZM52.0298 31.3522C52.2098 30.8129 52.7818 30.4923 53.3536 30.4361L52.0097 34.9298L51.9609 35.0879C51.6524 34.9526 51.3273 34.859 50.9941 34.8097L52.0298 31.3522ZM48.8593 34.3523C48.8609 34.3474 48.8623 34.3426 48.8636 34.337C48.9647 33.9593 49.158 33.6126 49.4263 33.3281C49.6946 33.0437 50.0294 32.8304 50.4005 32.7074L49.7669 34.8215C49.3579 34.8932 48.9635 35.0318 48.5995 35.2316L48.8593 34.3523ZM54.3699 40.7553C53.8634 42.2175 52.9067 43.4816 51.637 44.3663L46.2186 48.0995C45.57 48.4922 45.0949 49.1168 44.8899 49.8468C44.8802 49.8806 44.8737 49.9152 44.8703 49.9502L44.3655 55.2101C42.3103 55.8296 40.1187 55.8341 38.061 55.2229V52.5274C38.061 51.3151 38.1684 49.9952 38.4003 48.3732C38.4193 48.2403 38.4328 48.1056 38.4405 47.9728L38.5225 46.5605C38.6929 45.3636 39.1902 44.2369 39.9596 43.3044C40.729 42.3719 41.7407 41.6696 42.8834 41.2749L43.3506 41.1124C44.1645 40.8278 44.904 40.3639 45.5145 39.755L48.5672 36.7024C48.984 36.2868 49.5281 36.0231 50.1126 35.9534C50.697 35.8838 51.2879 36.0122 51.7907 36.3183L49.5754 38.3417C48.7303 39.1141 47.9573 39.9619 47.2661 40.8746C47.2191 40.9359 47.1846 41.0059 47.1647 41.0806C47.1448 41.1553 47.1399 41.2332 47.1502 41.3097C47.1605 41.3863 47.1859 41.4601 47.2249 41.5269C47.2639 41.5936 47.3157 41.652 47.3773 41.6986C47.4389 41.7453 47.5091 41.7793 47.584 41.7986C47.6588 41.818 47.7367 41.8224 47.8132 41.8116C47.8897 41.8007 47.9633 41.7748 48.0298 41.7354C48.0963 41.696 48.1543 41.6438 48.2005 41.5818C48.8486 40.726 49.5734 39.931 50.3659 39.2068L53.0877 36.7207C53.1462 36.6673 53.1932 36.6026 53.2259 36.5305C53.2587 36.4584 53.2765 36.3805 53.2783 36.3013C53.28 36.2222 53.2658 36.1435 53.2363 36.07C53.2068 35.9965 53.1628 35.9298 53.1068 35.8738C53.0657 35.8326 53.0238 35.7925 52.9811 35.7536L54.8678 29.4635C54.9884 29.058 55.2338 28.7008 55.5689 28.4426C55.9041 28.1845 56.3121 28.0385 56.735 28.0255L54.3699 40.7553Z" fill="white"/>
</g>
<g filter="url(#filter2_d_486_3970)">
<path d="M41.7933 23.4335C43.5159 22.0207 44.56 20.0568 44.8128 17.754L45.4396 12.7862C45.4503 12.7016 45.4424 12.6156 45.4164 12.5344C45.3904 12.4532 45.347 12.3786 45.2892 12.3158C45.2314 12.2531 45.1606 12.2038 45.0818 12.1712C45.0029 12.1387 44.9179 12.1238 44.8327 12.1275C39.6846 12.3521 35.6467 17.526 35.8315 23.6607L35.8706 24.9567C35.2663 26.1633 34.7588 27.4159 34.3527 28.7027C34.0254 27.9464 33.6017 27.2356 33.092 26.588C32.9768 25.4028 32.7768 24.2273 32.4933 23.0708C31.9109 20.804 30.4117 19.0463 28.4829 18.3689L22.3359 16.2096C22.2456 16.1779 22.1488 16.1688 22.0541 16.1831C21.9594 16.1974 21.8697 16.2347 21.7928 16.2918C21.7159 16.3488 21.6541 16.4238 21.6129 16.5102C21.5716 16.5967 21.5522 16.6919 21.5563 16.7876C21.7194 20.5953 23.0827 23.8405 25.2966 25.691C26.6663 26.8359 28.3367 27.4253 30.1823 27.4253C30.5909 27.4247 30.9991 27.3969 31.404 27.342L32.1583 27.2952C32.7263 28.0137 33.1734 28.8201 33.4818 29.6826C33.8802 30.7919 34.0228 31.8584 33.9087 32.8589H27.7891C27.7062 32.8588 27.6242 32.8764 27.5485 32.9105C27.4729 32.9445 27.4053 32.9943 27.3503 33.0564C27.2953 33.1185 27.2541 33.1916 27.2295 33.2708C27.2049 33.35 27.1973 33.4335 27.2074 33.5159L28.0207 40.1727C28.038 40.3148 28.1068 40.4455 28.2139 40.5404C28.3211 40.6352 28.4592 40.6876 28.6023 40.6876H38.3972C38.5403 40.6876 38.6785 40.6352 38.7856 40.5404C38.8928 40.4455 38.9615 40.3148 38.9789 40.1727L39.7922 33.5159C39.8022 33.4335 39.7947 33.35 39.7701 33.2708C39.7454 33.1916 39.7042 33.1185 39.6492 33.0564C39.5943 32.9943 39.5267 32.9445 39.4511 32.9105C39.3754 32.8764 39.2934 32.8588 39.2104 32.8589H35.0863C35.1469 32.1988 35.1203 31.5337 35.0073 30.8805C35.3581 29.0658 36.062 27.2178 36.867 25.5807C38.7125 25.2883 40.4554 24.5307 41.7933 23.4335ZM44.1859 13.3651L43.65 17.6122L43.6488 17.6219C43.2254 21.4989 40.3984 23.5295 37.5719 24.243C37.9924 23.4952 38.4199 22.8173 38.8233 22.2394L41.1398 18.9227C41.2279 18.7953 41.262 18.6382 41.2346 18.4857C41.2071 18.3332 41.1204 18.1978 40.9934 18.1091C40.8664 18.0204 40.7094 17.9856 40.5568 18.0123C40.4042 18.039 40.2684 18.1251 40.1791 18.2517L37.8626 21.5684C37.5841 21.9673 37.2944 22.4125 37.0032 22.8941C37.1468 18.006 40.2102 13.9527 44.1854 13.3649L44.1859 13.3651ZM27.4785 21.3068C27.3636 21.2021 27.2119 21.1474 27.0566 21.1546C26.9014 21.1619 26.7554 21.2305 26.6507 21.3453C26.546 21.4602 26.4913 21.612 26.4985 21.7672C26.5058 21.9224 26.5744 22.0685 26.6892 22.1731L31.1058 26.1966C29.1429 26.4274 27.4415 25.9567 26.048 24.7921C24.2529 23.2915 23.0868 20.7054 22.7878 17.6106L28.0945 19.4743C29.6534 20.0218 30.8734 21.4752 31.3583 23.3621C31.498 23.9058 31.6205 24.5134 31.7256 25.1758L27.4785 21.3068ZM38.5488 34.0307L37.8788 39.5157H29.121L28.4511 34.0307H38.5488Z" fill="white"/>
</g>
</g>
<defs>
<filter id="filter0_d_486_3970" x="-1.01184" y="16.8533" width="41.1223" height="50.0244" filterUnits="userSpaceOnUse" color-interpolation-filters="sRGB">
<feFlood flood-opacity="0" result="BackgroundImageFix"/>
<feColorMatrix in="SourceAlpha" type="matrix" values="0 0 0 0 0 0 0 0 0 0 0 0 0 0 0 0 0 0 127 0" result="hardAlpha"/>
<feOffset/>
<feGaussianBlur stdDeviation="5"/>
<feComposite in2="hardAlpha" operator="out"/>
<feColorMatrix type="matrix" values="0 0 0 0 0 0 0 0 0 0 0 0 0 0 0 0 0 0 0.25 0"/>
<feBlend mode="normal" in2="BackgroundImageFix" result="effect1_dropShadow_486_3970"/>
<feBlend mode="normal" in="SourceGraphic" in2="effect1_dropShadow_486_3970" result="shape"/>
</filter>
<filter id="filter1_d_486_3970" x="26.8888" y="16.8533" width="41.1229" height="49.9958" filterUnits="userSpaceOnUse" color-interpolation-filters="sRGB">
<feFlood flood-opacity="0" result="BackgroundImageFix"/>
<feColorMatrix in="SourceAlpha" type="matrix" values="0 0 0 0 0 0 0 0 0 0 0 0 0 0 0 0 0 0 127 0" result="hardAlpha"/>
<feOffset/>
<feGaussianBlur stdDeviation="5"/>
<feComposite in2="hardAlpha" operator="out"/>
<feColorMatrix type="matrix" values="0 0 0 0 0 0 0 0 0 0 0 0 0 0 0 0 0 0 0.25 0"/>
<feBlend mode="normal" in2="BackgroundImageFix" result="effect1_dropShadow_486_3970"/>
<feBlend mode="normal" in="SourceGraphic" in2="effect1_dropShadow_486_3970" result="shape"/>
</filter>
<filter id="filter2_d_486_3970" x="11.5558" y="2.12695" width="43.8884" height="48.5605" filterUnits="userSpaceOnUse" color-interpolation-filters="sRGB">
<feFlood flood-opacity="0" result="BackgroundImageFix"/>
<feColorMatrix in="SourceAlpha" type="matrix" values="0 0 0 0 0 0 0 0 0 0 0 0 0 0 0 0 0 0 127 0" result="hardAlpha"/>
<feOffset/>
<feGaussianBlur stdDeviation="5"/>
<feComposite in2="hardAlpha" operator="out"/>
<feColorMatrix type="matrix" values="0 0 0 0 0 0 0 0 0 0 0 0 0 0 0 0 0 0 0.25 0"/>
<feBlend mode="normal" in2="BackgroundImageFix" result="effect1_dropShadow_486_3970"/>
<feBlend mode="normal" in="SourceGraphic" in2="effect1_dropShadow_486_3970" result="shape"/>
</filter>
<clipPath id="clip0_486_3970">
<rect width="50" height="50" fill="white" transform="translate(8.5 9.5)"/>
</clipPath>
</defs>
</svg>
