<svg width="67" height="68" viewBox="0 0 67 68" fill="none" xmlns="http://www.w3.org/2000/svg">
<circle cx="33.5" cy="34" r="33.5" fill="#00730C"/>
<path opacity="0.1" d="M60.8027 45.9209C60.8027 64.4224 39.8499 58.7306 21.3484 58.7306C2.84685 58.7306 6.48765 40.9616 6.48765 22.4601C6.48765 3.95853 20.3423 42.5869 38.8439 42.5869C57.3454 42.5869 60.8027 27.4194 60.8027 45.9209Z" fill="white"/>
<g clip-path="url(#clip0_3918_3443)">
<g filter="url(#filter0_d_3918_3443)">
<path d="M57.0787 32.2443L52.6678 36.6552L45.5128 29.5001L49.9236 25.0892L48.7453 23.9109L43.7452 28.9109L39.8227 32.8335H27.1792L23.2567 28.9109L18.2566 23.9109L17.0783 25.0892L21.4892 29.5001L14.3341 36.6552L9.92322 32.2443L8.74487 33.4227L13.7449 38.4227L17.9116 42.5894L22.3283 46.9828L21.6617 47.6495C20.6505 48.6495 20.6416 50.2799 21.6416 51.2911C21.6482 51.2978 21.6549 51.3045 21.6617 51.3112C22.1259 51.7712 22.7468 52.039 23.4 52.0612C23.4241 52.7132 23.6966 53.3312 24.1617 53.7887C24.6262 54.2484 25.2469 54.5162 25.9001 54.5387C25.9255 55.1917 26.2002 55.8103 26.6676 56.2671C27.132 56.7267 27.7528 56.9946 28.4059 57.0171C28.43 57.6691 28.7025 58.2871 29.1676 58.7446C30.1855 59.7502 31.823 59.7502 32.841 58.7446L33.501 58.0837L34.161 58.7396C35.178 59.7547 36.8252 59.7532 37.8403 58.7362C38.3012 58.2745 38.5718 57.6564 38.5985 57.0046C39.2527 56.9809 39.8737 56.7113 40.3377 56.2496C40.8026 55.7892 41.0747 55.1691 41.0985 54.5154C41.7528 54.4914 42.3739 54.2215 42.8377 53.7595C43.3026 53.2992 43.5747 52.6791 43.5986 52.0253C45.0291 51.976 46.1487 50.7763 46.0992 49.3457C46.0765 48.6878 45.8042 48.0631 45.3378 47.5986L44.7061 46.9695L49.0886 42.5869L53.2553 38.4202L58.2554 33.4202L57.0787 32.2443ZM15.5124 37.8335L22.6675 30.6785L25.6559 33.6668L18.5008 40.8219L15.5124 37.8335ZM24.1675 50.1262C23.7992 50.4941 23.2025 50.4941 22.8342 50.1262C22.4766 49.7737 22.4724 49.198 22.8249 48.8404C22.8279 48.8373 22.8311 48.8342 22.8342 48.8311L23.5117 48.1595L24.8342 49.4662L24.1675 50.1262ZM26.6567 52.607C26.2889 52.9664 25.7012 52.9657 25.3342 52.6054C24.9764 52.2518 24.9729 51.6751 25.3265 51.3172C25.3291 51.3146 25.3316 51.312 25.3342 51.3095L26.0084 50.6428L27.3234 51.9495L26.6567 52.607ZM29.1676 55.0837C28.7989 55.4507 28.2029 55.4507 27.8342 55.0837C27.4766 54.7312 27.4725 54.1556 27.825 53.798C27.828 53.7948 27.8311 53.7917 27.8342 53.7887L28.5059 53.122L29.8201 54.4287L29.1676 55.0837ZM31.6676 57.5621C31.2997 57.9247 30.7089 57.9247 30.3409 57.5621C29.9833 57.2096 29.9792 56.6339 30.3317 56.2763C30.3347 56.2732 30.3378 56.2701 30.3409 56.2671L31.0076 55.6046L32.3218 56.9112L31.6676 57.5621ZM44.169 50.0866C44.1674 50.0881 44.166 50.0896 44.1644 50.0912H44.1677C43.8015 50.4547 43.2106 50.4547 42.8444 50.0912L41.5944 48.8461C41.2683 48.5212 40.7405 48.5222 40.4156 48.8482C40.0907 49.1743 40.0917 49.7021 40.4177 50.027L41.6677 51.272C42.0293 51.631 42.0313 52.2151 41.6723 52.5766C41.6707 52.5782 41.6693 52.5796 41.6677 52.5812C41.3015 52.9447 40.7106 52.9447 40.3444 52.5812L39.0944 51.3362C38.7683 51.0113 38.2405 51.0122 37.9156 51.3383C37.5907 51.6643 37.5916 52.1921 37.9177 52.517L39.1677 53.762C39.5293 54.121 39.5312 54.7052 39.1723 55.0666C39.1707 55.0682 39.1693 55.0697 39.1677 55.0712C38.8014 55.4348 38.2106 55.4348 37.8443 55.0712L36.5943 53.8262C36.2683 53.5013 35.7405 53.5022 35.4156 53.8283C35.0907 54.1543 35.0916 54.6821 35.4177 55.007L36.6677 56.2521C37.0292 56.611 37.0312 57.1952 36.6722 57.5567C36.6707 57.5582 36.6692 57.5597 36.6677 57.5612C36.301 57.9245 35.7102 57.9245 35.3435 57.5612L19.6808 42.0002L27.1809 34.5002H29.8568L23.74 40.7602C23.421 41.0867 23.424 41.6091 23.7467 41.9319C24.7795 42.975 26.1663 43.5924 27.6326 43.6619C29.108 43.7401 30.5473 43.1878 31.5918 42.1427C31.6287 42.1063 31.6618 42.0664 31.6909 42.0236L31.9926 41.5811C33.7921 42.9998 36.1379 43.5261 38.371 43.0119L44.1644 48.782C44.5259 49.1409 44.528 49.7251 44.169 50.0866ZM43.5319 45.7961L40.036 42.3144L40.6677 41.8336C40.6974 41.8104 40.7252 41.7851 40.751 41.7577L41.5844 40.9244L40.406 39.7461L39.6135 40.5386L38.8927 41.0819C36.6677 42.0337 34.0856 41.5019 32.4176 39.7486C32.0922 39.423 31.5646 39.423 31.2391 39.7483C31.2024 39.785 31.1693 39.8249 31.1401 39.8677L30.3526 41.0202C29.6404 41.6944 28.6837 42.0484 27.7042 42.0002C26.9382 41.9608 26.1975 41.7123 25.5625 41.2819L32.1851 34.5002H39.8227L47.3228 42.0002L43.5319 45.7961ZM48.5011 40.8219L41.346 33.6668L44.3344 30.6785L51.4895 37.8335L48.5011 40.8219Z" fill="white"/>
</g>
<g filter="url(#filter1_d_3918_3443)">
<path d="M19.3342 37.0002H17.6675V38.6669H19.3342V37.0002Z" fill="white"/>
</g>
<g filter="url(#filter2_d_3918_3443)">
<path d="M49.3344 37.0002H47.6677V38.6669H49.3344V37.0002Z" fill="white"/>
</g>
<g filter="url(#filter3_d_3918_3443)">
<path d="M35.1676 24.5002C38.8478 24.496 41.8301 21.5137 41.8343 17.8334C41.8343 17.3732 41.4612 17.0001 41.001 17.0001H39.3343C37.418 17.0011 35.5955 17.8291 34.3342 19.2718V16.1667H35.1676C38.3877 16.1631 40.9973 13.5535 41.001 10.3333C41.001 9.87313 40.6278 9.5 40.1676 9.5H38.5009C36.4502 9.50323 34.5517 10.5831 33.5009 12.3442C32.45 10.5831 30.5516 9.50323 28.5008 9.5H26.8342C26.374 9.5 26.0008 9.87313 26.0008 10.3333C26.0045 13.5535 28.6141 16.1631 31.8342 16.1667H32.6676V19.2718C31.4063 17.8291 29.5838 17.0011 27.6675 17.0001H26.0008C25.5406 17.0001 25.1675 17.3732 25.1675 17.8334C25.1716 21.5137 28.154 24.496 31.8342 24.5002H32.6676V25.8218L27.3225 31.1669H29.6792L33.5009 27.3452L37.3226 31.1669H39.6793L34.3342 25.8218V24.5002H35.1676ZM39.3343 18.6668H40.0985C39.6886 21.071 37.6065 22.8305 35.1676 22.8335H34.4034C34.8132 20.4293 36.8953 18.6698 39.3343 18.6668ZM38.5009 11.1667H39.2509C38.8525 13.1056 37.147 14.4979 35.1676 14.5001H34.4176C34.8159 12.5612 36.5215 11.1689 38.5009 11.1667ZM31.8342 14.5001C29.8548 14.4979 28.1493 13.1056 27.7508 11.1667H28.5008C30.4802 11.1689 32.1858 12.5612 32.5842 14.5001H31.8342ZM31.8342 22.8335C29.3953 22.8305 27.3132 21.071 26.9033 18.6668H27.6675C30.1064 18.6698 32.1885 20.4293 32.5984 22.8335H31.8342Z" fill="white"/>
</g>
</g>
<defs>
<filter id="filter0_d_3918_3443" x="-1.25513" y="17.9109" width="69.5105" height="55.5891" filterUnits="userSpaceOnUse" color-interpolation-filters="sRGB">
<feFlood flood-opacity="0" result="BackgroundImageFix"/>
<feColorMatrix in="SourceAlpha" type="matrix" values="0 0 0 0 0 0 0 0 0 0 0 0 0 0 0 0 0 0 127 0" result="hardAlpha"/>
<feOffset dy="4"/>
<feGaussianBlur stdDeviation="5"/>
<feComposite in2="hardAlpha" operator="out"/>
<feColorMatrix type="matrix" values="0 0 0 0 0 0 0 0 0 0 0 0 0 0 0 0 0 0 0.2 0"/>
<feBlend mode="normal" in2="BackgroundImageFix" result="effect1_dropShadow_3918_3443"/>
<feBlend mode="normal" in="SourceGraphic" in2="effect1_dropShadow_3918_3443" result="shape"/>
</filter>
<filter id="filter1_d_3918_3443" x="7.66748" y="31.0002" width="21.6667" height="21.6667" filterUnits="userSpaceOnUse" color-interpolation-filters="sRGB">
<feFlood flood-opacity="0" result="BackgroundImageFix"/>
<feColorMatrix in="SourceAlpha" type="matrix" values="0 0 0 0 0 0 0 0 0 0 0 0 0 0 0 0 0 0 127 0" result="hardAlpha"/>
<feOffset dy="4"/>
<feGaussianBlur stdDeviation="5"/>
<feComposite in2="hardAlpha" operator="out"/>
<feColorMatrix type="matrix" values="0 0 0 0 0 0 0 0 0 0 0 0 0 0 0 0 0 0 0.2 0"/>
<feBlend mode="normal" in2="BackgroundImageFix" result="effect1_dropShadow_3918_3443"/>
<feBlend mode="normal" in="SourceGraphic" in2="effect1_dropShadow_3918_3443" result="shape"/>
</filter>
<filter id="filter2_d_3918_3443" x="37.6677" y="31.0002" width="21.6667" height="21.6667" filterUnits="userSpaceOnUse" color-interpolation-filters="sRGB">
<feFlood flood-opacity="0" result="BackgroundImageFix"/>
<feColorMatrix in="SourceAlpha" type="matrix" values="0 0 0 0 0 0 0 0 0 0 0 0 0 0 0 0 0 0 127 0" result="hardAlpha"/>
<feOffset dy="4"/>
<feGaussianBlur stdDeviation="5"/>
<feComposite in2="hardAlpha" operator="out"/>
<feColorMatrix type="matrix" values="0 0 0 0 0 0 0 0 0 0 0 0 0 0 0 0 0 0 0.2 0"/>
<feBlend mode="normal" in2="BackgroundImageFix" result="effect1_dropShadow_3918_3443"/>
<feBlend mode="normal" in="SourceGraphic" in2="effect1_dropShadow_3918_3443" result="shape"/>
</filter>
<filter id="filter3_d_3918_3443" x="15.1675" y="3.5" width="36.6667" height="41.667" filterUnits="userSpaceOnUse" color-interpolation-filters="sRGB">
<feFlood flood-opacity="0" result="BackgroundImageFix"/>
<feColorMatrix in="SourceAlpha" type="matrix" values="0 0 0 0 0 0 0 0 0 0 0 0 0 0 0 0 0 0 127 0" result="hardAlpha"/>
<feOffset dy="4"/>
<feGaussianBlur stdDeviation="5"/>
<feComposite in2="hardAlpha" operator="out"/>
<feColorMatrix type="matrix" values="0 0 0 0 0 0 0 0 0 0 0 0 0 0 0 0 0 0 0.2 0"/>
<feBlend mode="normal" in2="BackgroundImageFix" result="effect1_dropShadow_3918_3443"/>
<feBlend mode="normal" in="SourceGraphic" in2="effect1_dropShadow_3918_3443" result="shape"/>
</filter>
<clipPath id="clip0_3918_3443">
<rect width="50" height="50" fill="white" transform="translate(8.5 9.5)"/>
</clipPath>
</defs>
</svg>
