<svg width="71" height="71" viewBox="0 0 71 71" fill="none" xmlns="http://www.w3.org/2000/svg">
<path d="M37.94 64.3477C37.8553 64.2748 37.7711 64.201 37.6875 64.1265V64.3944C37.7719 64.3789 37.8561 64.3634 37.94 64.3477Z" fill="#00730C"/>
<path d="M69.389 0.500859C69.3306 0.501816 63.4505 0.605176 55.4812 1.67008C54.5651 1.79244 54.2042 2.99707 54.9285 3.59672C58.2821 6.3732 53.9707 13.0765 49.9101 9.37514C49.7219 9.20843 49.482 9.11173 49.2307 9.10135C48.9795 9.09096 48.7324 9.16752 48.5311 9.31812C47.0291 10.4097 44.8023 10.6355 43.1112 9.86678C42.8512 9.74854 42.5553 9.7367 42.2867 9.83378C42.0181 9.93087 41.7981 10.1292 41.6738 10.3863C39.8949 14.0661 33.6454 12.5313 34.4609 8.064C34.4911 7.87645 34.4726 7.68428 34.4071 7.50597C34.3415 7.32766 34.2313 7.1692 34.0868 7.04583C33.9423 6.92245 33.7686 6.83831 33.5822 6.80149C33.3959 6.76467 33.2032 6.77641 33.0226 6.83559C27.7668 8.68129 23.2062 10.9948 19.4697 13.7138C19.3488 13.8009 19.2468 13.9116 19.1698 14.0392C19.0928 14.1669 19.0424 14.3088 19.0218 14.4564C19.0011 14.604 19.0105 14.7542 19.0495 14.8981C19.0885 15.0419 19.1562 15.1764 19.2485 15.2934C21.386 17.9526 19.2116 22.41 15.8271 22.3755C15.5353 22.3748 15.2551 22.4895 15.0476 22.6947C14.8401 22.8999 14.7222 23.1788 14.7197 23.4706C14.723 26.2018 11.9424 28.3681 9.313 27.7207C9.05162 27.6562 8.77562 27.6904 8.53784 27.8166C8.30006 27.9429 8.11721 28.1525 8.02429 28.4052C4.24881 38.6738 6.81078 49.9317 9.85632 58.0513L1.14064 66.7657C-0.771508 68.6616 2.09548 71.9919 4.23431 69.8594L13.0117 61.082C17.21 62.3779 26.3371 64.7785 31.1247 64.9298V60.6563C31.1132 59.4622 31.8903 58.5315 32.7091 57.7127C33.6465 56.7754 32.1949 55.4587 31.3419 56.3293L30.1636 57.5077C27.2762 60.4494 22.4227 55.9655 25.5233 52.8673L27.8437 50.5472V46.4375C27.8417 45.8277 28.0105 45.2295 28.3311 44.7107C28.6518 44.192 29.1113 43.7735 29.6577 43.5026C31.0078 42.8278 32.6442 42.1971 33.3406 40.7305C33.7062 40.0119 33.8627 39.2051 33.7924 38.402C33.7221 37.5988 33.4277 36.8316 32.9428 36.1875C32.1586 35.1368 32.2182 33.0688 32.2182 31.7873C32.2181 31.1144 32.052 30.452 31.7345 29.8587C31.417 29.2654 30.958 28.7597 30.3982 28.3864C26.6938 25.9371 30.5469 20.5798 34.0387 22.9264C34.2901 23.094 34.5827 23.1892 34.8845 23.2015C35.1863 23.2138 35.4857 23.1428 35.7499 22.9962C36.014 22.8496 36.2327 22.6332 36.382 22.3705C36.5312 22.1079 36.6053 21.8092 36.5961 21.5073C36.595 21.4731 36.5942 21.4393 36.5939 21.4058C36.5436 16.9513 43.1564 16.9972 43.1564 21.2813C43.1564 23.2774 45.3439 25.6563 48.6251 25.6563C51.9064 25.6563 54.0939 22.9408 54.0939 21.2813C54.0939 16.8159 60.6564 17.1213 60.6564 21.2813C60.6564 21.2966 60.6564 21.3121 60.6564 21.3274C60.6538 21.6222 60.7269 21.9127 60.8688 22.1711C61.0107 22.4295 61.2166 22.6472 61.4668 22.8032C61.7169 22.9592 62.0029 23.0483 62.2974 23.0621C62.5919 23.0758 62.885 23.0136 63.1486 22.8816C64.8966 22.0203 66.9933 22.2642 67.9567 24.1708C69.4072 16.6673 70.1552 8.91111 70.499 1.64643C70.5042 1.4976 70.4792 1.34927 70.4257 1.2103C70.3722 1.07134 70.2912 0.944591 70.1876 0.837647C70.0839 0.730703 69.9598 0.645757 69.8226 0.587889C69.6854 0.530022 69.5379 0.500422 69.389 0.500859Z" fill="#00730C"/>
<path d="M70.1797 54.4141L67.2188 51.4533V46.4375C67.2188 46.2344 67.1622 46.0353 67.0555 45.8625C66.9487 45.6898 66.7959 45.5501 66.6142 45.4593L62.6661 43.4844C62.2253 41.205 60.9935 39.1546 59.1882 37.6949L62.4063 35.2813C62.5421 35.1794 62.6524 35.0473 62.7283 34.8954C62.8043 34.7435 62.8438 34.5761 62.8438 34.4063V28.4291L65.6381 26.5663C66.7428 25.8289 65.6609 23.9037 64.4247 24.7463L61.1434 26.9338C60.9936 27.0336 60.8708 27.1689 60.7858 27.3277C60.7008 27.4864 60.6563 27.6637 60.6563 27.8438V33.8594L57.207 36.4464C56.8713 36.2876 56.5268 36.1481 56.1752 36.0284L55.49 33.2305C55.0773 31.5344 54.0502 30.0516 52.6074 29.069C55.5045 27.1794 58.4688 25.1414 58.4688 21.2813C58.4688 19.9277 56.2813 19.8087 56.2813 21.2813C56.2813 25.0957 52.7897 26.3069 50.2118 28.0235C49.1671 27.7876 48.083 27.7876 47.0383 28.0235C44.5089 26.3389 40.9688 24.9852 40.9688 21.2813C40.9688 19.9277 38.7813 19.8085 38.7813 21.2813C38.7813 25.2808 41.6177 27.1204 44.6401 29.0707C43.1986 30.0533 42.1725 31.5354 41.7602 33.2305L41.0749 36.0286C40.7233 36.1482 40.3788 36.2878 40.0431 36.4465L36.5938 33.8594V27.8438C36.5938 27.6637 36.5494 27.4865 36.4644 27.3277C36.3795 27.169 36.2566 27.0336 36.1068 26.9338L32.8256 24.7463C31.616 23.9227 30.474 25.8237 31.6122 26.5663L34.4063 28.4291V34.4063C34.4063 34.5761 34.4459 34.7435 34.5218 34.8954C34.5977 35.0473 34.708 35.1794 34.8438 35.2813L38.0626 37.6953C36.2574 39.1549 35.0257 41.2052 34.5847 43.4844L30.6359 45.4589C30.4542 45.5498 30.3014 45.6894 30.1946 45.8623C30.0878 46.0352 30.0313 46.2343 30.0313 46.4375V51.4533L27.0704 54.4141C26.1487 55.3181 27.524 57.0488 28.6173 55.9609L31.8985 52.6797C32.0001 52.5781 32.0806 52.4575 32.1356 52.3248C32.1906 52.1921 32.2188 52.0499 32.2188 51.9063V47.1135L34.4063 46.0866C35.9786 43.5227 39.006 42.0625 43.1563 42.0625H54.0938C58.2442 42.0625 61.2722 43.5227 62.8438 46.0866V46.0197L65.0313 47.1135V51.9063C65.0313 52.0499 65.0596 52.1921 65.1146 52.3248C65.1695 52.4575 65.2501 52.5781 65.3516 52.6797L68.6329 55.9609C69.6085 56.9535 71.1823 55.3996 70.1797 54.4141Z" fill="#00730C"/>
<path d="M43.1562 44.2501V56.8375C43.1562 60.1553 44.5258 63.5128 46.7864 66.0037C47.0325 66.0357 47.2813 66.0599 47.5312 66.079V44.2501H43.1562Z" fill="#00730C"/>
<path d="M54.0938 44.2501H49.7188V66.079C49.9687 66.0599 50.2172 66.0357 50.4635 66.0037C52.7242 63.5128 54.0938 60.1553 54.0938 56.8375V44.2501Z" fill="#00730C"/>
<path d="M40.9687 56.8374V44.4462C37.8788 45.0235 35.679 46.8359 34.4062 49.2997V51.9062C34.404 53.9474 34.844 55.9648 35.6961 57.8196L33.6327 59.8828C33.5312 59.9844 33.4506 60.105 33.3956 60.2377C33.3407 60.3704 33.3124 60.5126 33.3124 60.6562V65.672L30.3515 68.6328C29.4375 69.5278 30.7985 71.2737 31.8983 70.1797L35.1796 66.8984C35.2811 66.7968 35.3617 66.6763 35.4167 66.5436C35.4716 66.4109 35.4999 66.2686 35.4999 66.125V61.1092L36.8069 59.8021C38.4184 62.2063 40.7215 64.0648 43.4117 65.1323C41.8616 62.6365 40.9687 59.7246 40.9687 56.8374Z" fill="#00730C"/>
<path d="M66.8983 68.6329L63.9374 65.6721V60.6563C63.9374 60.5126 63.9091 60.3704 63.8542 60.2377C63.7992 60.105 63.7186 59.9844 63.6171 59.8829L61.5537 57.8196C62.4058 55.9648 62.8459 53.9474 62.8437 51.9063V49.2993C61.5708 46.8359 59.371 45.0236 56.2812 44.4458V56.837C56.2812 59.7243 55.3883 62.6361 53.8381 65.1319C56.5284 64.0645 58.8315 62.206 60.4429 59.8018L61.7499 61.1088V66.125C61.7499 66.2687 61.7782 66.4109 61.8332 66.5436C61.8881 66.6763 61.9687 66.7969 62.0702 66.8984L65.3515 70.1797C66.3271 71.1721 67.9009 69.6183 66.8983 68.6329Z" fill="#00730C"/>
</svg>
