<svg width="25" height="25" viewBox="0 0 25 25" fill="none" xmlns="http://www.w3.org/2000/svg">
<g clip-path="url(#clip0_3539_20511)">
<path d="M12.499 0.00102997C5.6068 0.00102997 0 5.60783 0 12.5C0 19.3921 5.6068 24.9989 12.499 24.9989C15.2779 24.9989 17.9089 24.1063 20.1337 22.395C21.017 21.6201 21.0014 20.5139 20.593 19.7619C20.3347 19.2859 19.941 18.9598 19.4838 18.7994L19.6931 18.5651C20.0056 18.2141 20.1431 17.7464 20.0691 17.2829C19.9962 16.8194 19.7212 16.4163 19.3161 16.1778L16.5653 14.5675C15.9413 14.203 15.0894 14.3373 14.6092 14.8769L13.9988 15.5633C13.8988 15.6758 13.7603 15.7383 13.6103 15.7383C13.4322 15.7383 13.2739 15.6529 13.176 15.505L9.82315 10.446C9.73776 10.3179 9.71481 10.1648 9.75651 10.0169C9.79815 9.86792 9.89814 9.75128 10.0388 9.68669L10.9981 9.24088C11.672 8.92943 12.0344 8.17847 11.8605 7.45768L11.1137 4.36004C10.8908 3.43409 9.80962 2.90391 8.93782 3.3091L8.08165 3.70594C6.81613 4.29339 5.88393 5.40268 5.52351 6.75046L5.36727 7.33791C5.08502 8.3951 5.18291 9.5242 5.64328 10.5168L6.41299 12.1771C7.54204 14.6133 9.08361 16.8048 10.9939 18.6921L11.6292 19.3192C12.5729 20.2514 13.8217 20.7888 15.1477 20.8316L15.3195 20.8347C16.4673 20.8347 17.5735 20.4545 18.4765 19.7744C18.4942 19.7712 18.5119 19.7754 18.5307 19.7702C19.239 19.5723 19.5889 20.0952 19.6785 20.2598C19.8889 20.6493 19.8993 21.218 19.4743 21.593C17.4599 23.1408 15.0487 23.9595 12.501 23.9595C6.18376 23.9595 1.04356 18.8193 1.04356 12.5021C1.04356 6.18489 6.18386 1.04469 12.501 1.04469C18.8182 1.04469 23.9584 6.18489 23.9584 12.5021C23.9584 12.7896 24.1918 13.0229 24.4792 13.0229C24.7667 13.0229 25 12.7896 25 12.5021C24.9979 5.60788 19.39 0.00102997 12.499 0.00102997Z" fill="white"/>
</g>
<defs>
<clipPath id="clip0_3539_20511">
<rect width="25" height="25" fill="white"/>
</clipPath>
</defs>
</svg>
