<svg width="71" height="71" viewBox="0 0 71 71" fill="none" xmlns="http://www.w3.org/2000/svg">
<path d="M42.5221 10.6228C42.8692 10.3603 43.3063 10.2465 43.7373 10.3064C43.9507 10.336 44.1562 10.4074 44.342 10.5164C44.5278 10.6255 44.6903 10.7701 44.8203 10.9419C44.9502 11.1138 45.045 11.3096 45.0993 11.5181C45.1536 11.7266 45.1663 11.9437 45.1366 12.1571C45.107 12.3705 45.0356 12.576 44.9266 12.7618C44.8175 12.9476 44.6729 13.1102 44.5011 13.2401C42.0698 15.244 40.0008 17.6505 38.3843 20.3548C38.2202 20.6318 38.0649 20.91 37.9147 21.1888C39.1127 21.0496 40.3031 20.8505 41.4812 20.5923C44.936 19.8144 47.6449 17.6727 48.7282 14.8638L52.4655 5.17041C46.673 5.44918 41.7617 7.42969 38.885 10.6761C37.0892 12.7025 36.1369 15.1287 36.0383 17.907C38.9148 13.3811 42.369 10.7386 42.5221 10.6228Z" fill="#00730C"/>
<path d="M40.8794 34.7208C44.1916 34.9999 47.0796 34.1329 49.4711 32.1342C52.7999 29.3526 54.9231 24.5016 55.3707 18.7195L45.572 22.1734C42.7323 23.1743 40.5134 25.82 39.6346 29.2505C39.4263 30.0647 39.2399 30.9595 39.0754 31.9242L46.3489 25.2735C46.5077 25.1272 46.6939 25.0138 46.8967 24.9396C47.0995 24.8654 47.3149 24.832 47.5307 24.8413C47.7464 24.8506 47.9582 24.9024 48.1538 24.9936C48.3495 25.0849 48.5253 25.214 48.671 25.3733C48.8167 25.5327 48.9295 25.7192 49.003 25.9223C49.0764 26.1254 49.1091 26.3409 49.099 26.5566C49.089 26.7723 49.0365 26.9839 48.9445 27.1793C48.8525 27.3746 48.7229 27.5499 48.563 27.6951L40.8794 34.7208Z" fill="#00730C"/>
<path d="M28.45 31.0886C27.8269 29.9235 27.1368 28.7955 26.3834 27.7101L22.325 21.8779C22.0765 21.5207 21.98 21.0794 22.0568 20.6511C22.1336 20.2228 22.3774 19.8426 22.7346 19.594C23.0917 19.3455 23.533 19.249 23.9613 19.3258C24.3896 19.4026 24.7698 19.6464 25.0184 20.0036L29.077 25.8359C29.5351 26.4945 29.9732 27.1715 30.3914 27.867C29.8828 19.2107 24.2651 12.1525 17.0972 11.3569L18.0921 19.2699C18.5985 23.9228 21.6105 29.1954 28.45 31.0886Z" fill="#00730C"/>
<path d="M60.3063 61.7208C60.0937 61.5368 59.844 61.4007 59.5741 61.3219C59.3042 61.2431 59.0205 61.2234 58.7422 61.2641C49.4957 62.6149 35.7325 61.7717 27.3606 56.7297C26.5987 56.2707 25.9334 55.8745 25.4845 55.614C24.0975 54.81 22.6371 54.1399 21.1231 53.6127C19.3067 52.9798 17.3967 52.6572 15.4732 52.6585C14.6451 52.6585 13.2037 52.7208 11.8194 52.8604C11.336 52.9081 10.888 53.1355 10.5641 53.4976C10.2403 53.8597 10.0641 54.3301 10.0704 54.8159V54.8547C10.0639 55.1254 10.1148 55.3943 10.2198 55.6439C10.3249 55.8935 10.4815 56.1179 10.6796 56.3025C10.8743 56.4874 11.1064 56.6284 11.3601 56.7161C11.6139 56.8038 11.8835 56.8362 12.1508 56.811C13.2917 56.7111 14.5594 56.649 15.4594 56.649C17.5381 56.6476 19.6023 56.9959 21.5654 57.6793C23.1625 58.235 24.7031 58.9414 26.1663 59.7891C26.6218 60.0531 27.2957 60.4535 28.0639 60.9161C36.0843 65.7468 49.8764 66.6993 59.3558 65.1431C59.7225 65.0797 60.0636 64.9135 60.3395 64.6639C60.6154 64.4142 60.8147 64.0913 60.9143 63.7328C61.0139 63.3743 61.0096 62.9949 60.902 62.6387C60.7944 62.2825 60.5879 61.9642 60.3064 61.7208H60.3063ZM29.1048 59.9472C29.0176 60.1062 28.8708 60.224 28.6968 60.2747C28.5228 60.3255 28.3357 60.3051 28.1767 60.2179C27.8969 60.0644 27.6214 59.9062 27.3582 59.7476C27.2029 59.654 27.0912 59.5026 27.0475 59.3266C27.0039 59.1506 27.032 58.9645 27.1256 58.8092C27.2191 58.6539 27.3706 58.5422 27.5466 58.4986C27.7225 58.4549 27.9086 58.483 28.0639 58.5766C28.3113 58.7256 28.5698 58.8745 28.8341 59.0191C28.993 59.1063 29.1108 59.2531 29.1616 59.4271C29.2124 59.6012 29.1919 59.7882 29.1048 59.9472ZM46.7589 64.7715C46.7461 64.7715 46.7333 64.7714 46.7204 64.7705C40.6954 64.4389 35.2071 63.3062 30.8516 61.4953C30.7681 61.4613 30.692 61.4111 30.628 61.3476C30.5639 61.284 30.513 61.2085 30.4783 61.1252C30.4435 61.0419 30.4256 60.9526 30.4256 60.8624C30.4255 60.7722 30.4434 60.6828 30.478 60.5995C30.5127 60.5162 30.5634 60.4406 30.6275 60.377C30.6915 60.3135 30.7674 60.2632 30.851 60.2291C30.9345 60.195 31.024 60.1778 31.1142 60.1785C31.2044 60.1791 31.2936 60.1976 31.3766 60.2329C35.5911 61.9851 40.9231 63.0823 46.7962 63.4056C46.9742 63.4151 47.1414 63.4936 47.2623 63.6246C47.3832 63.7556 47.4482 63.9286 47.4434 64.1067C47.4385 64.2849 47.3643 64.4541 47.2365 64.5784C47.1088 64.7026 46.9375 64.7721 46.7593 64.7719L46.7589 64.7715Z" fill="#00730C"/>
<path d="M34.6362 39.8737C34.5356 40.1548 34.4448 40.4343 34.3605 40.7135C33.2911 35.5065 31.2023 30.5659 28.2911 26.3825L24.2328 20.5503C24.1292 20.4015 23.9708 20.2999 23.7923 20.2679C23.6138 20.2359 23.43 20.2761 23.2811 20.3796C23.1323 20.4832 23.0307 20.6416 22.9987 20.8201C22.9667 20.9985 23.0069 21.1824 23.1104 21.3312L27.1688 27.1634C30.1119 31.3925 32.1864 36.428 33.1679 41.7253C33.397 42.9617 33.585 44.1774 33.7316 45.3586C33.754 45.9165 33.8154 46.4721 33.9153 47.0214H33.919C33.9204 47.029 33.9234 47.0359 33.925 47.0435C33.1147 47.3213 32.3232 47.6301 31.5598 47.9699C31.1592 48.1477 30.7594 48.3339 30.3713 48.522C26.4919 50.4023 23.4752 50.9519 19.9823 51.589C19.7748 51.6268 19.5662 51.6648 19.3567 51.7033C20.105 51.8636 20.8426 52.0701 21.5654 52.3216C23.1625 52.8772 24.703 53.5836 26.1662 54.4313C26.6218 54.6954 27.2957 55.0957 28.0639 55.5584C33.5534 58.8652 44.9441 61.6132 57.3411 60.0737L53.6984 52.4097C53.2242 51.4031 52.6307 50.4572 51.9306 49.5924C50.4793 47.815 48.867 46.8278 46.3685 46.1881L46.0322 46.1207C44.5876 45.8333 43.1183 45.689 41.6454 45.6897C39.7197 45.6865 37.8017 45.9347 35.9403 46.428C35.7078 46.49 35.4773 46.5554 35.2475 46.6226C35.2028 46.1676 35.1519 45.7069 35.0948 45.2405C35.0394 43.6748 35.3166 42.0307 35.9236 40.3338C36.7288 38.0544 38.0769 36.0053 39.8512 34.3634L47.9168 26.9883C48.0504 26.8659 48.13 26.6954 48.138 26.5144C48.146 26.3334 48.0818 26.1566 47.9595 26.0229C47.8373 25.8892 47.6669 25.8095 47.4859 25.8013C47.3049 25.7931 47.1281 25.8571 46.9942 25.9793L38.9287 33.3548C37.6804 34.5035 36.6234 35.8441 35.7978 37.326C34.6591 34.2605 34.2733 31.1647 34.6531 28.1057C34.9992 25.3178 35.9775 22.5463 37.5608 19.8678C40.2778 15.2716 43.8803 12.5102 43.9242 12.4767C44.0672 12.3667 44.161 12.2048 44.1851 12.0261C44.2092 11.8473 44.1617 11.6663 44.0529 11.5225C43.9442 11.3786 43.783 11.2836 43.6045 11.258C43.4259 11.2324 43.2446 11.2785 43.0998 11.3861C42.9448 11.5034 39.2688 14.3118 36.4084 19.1309C33.7644 23.5848 31.3847 30.6328 34.9872 38.9759C34.8621 39.2711 34.7452 39.5704 34.6362 39.8737ZM30.1218 53.9584C29.7904 53.9584 29.4665 53.8601 29.191 53.676C28.9155 53.4919 28.7008 53.2303 28.574 52.9241C28.4472 52.618 28.414 52.2811 28.4786 51.9562C28.5433 51.6312 28.7028 51.3327 28.9371 51.0984C29.1714 50.864 29.47 50.7045 29.7949 50.6398C30.1199 50.5752 30.4568 50.6084 30.7629 50.7352C31.069 50.862 31.3307 51.0767 31.5148 51.3522C31.6989 51.6277 31.7971 51.9517 31.7971 52.283C31.7966 52.7272 31.62 53.153 31.3059 53.4671C30.9918 53.7812 30.566 53.9578 30.1218 53.9584ZM52.2702 56.1798C52.4776 56.1797 52.6803 56.241 52.8527 56.3562C53.0252 56.4713 53.1596 56.6349 53.239 56.8265C53.3185 57.018 53.3393 57.2288 53.2989 57.4321C53.2585 57.6355 53.1587 57.8223 53.0122 57.969C52.8656 58.1156 52.6788 58.2155 52.4755 58.256C52.2721 58.2965 52.0613 58.2758 51.8698 58.1965C51.6782 58.1171 51.5144 57.9828 51.3992 57.8104C51.284 57.638 51.2225 57.4353 51.2225 57.228C51.2228 56.9501 51.3334 56.6836 51.5299 56.4871C51.7264 56.2906 51.9929 56.18 52.2708 56.1798H52.2702ZM47.2423 50.6153C47.5262 50.6153 47.8037 50.6995 48.0398 50.8572C48.2759 51.015 48.4599 51.2392 48.5685 51.5015C48.6772 51.7638 48.7056 52.0524 48.6502 52.3309C48.5948 52.6094 48.4581 52.8652 48.2573 53.0659C48.0566 53.2667 47.8008 53.4034 47.5223 53.4588C47.2438 53.5142 46.9552 53.4858 46.6929 53.3771C46.4306 53.2685 46.2064 53.0845 46.0486 52.8484C45.8909 52.6123 45.8067 52.3348 45.8067 52.0509C45.8071 51.6702 45.9586 51.3052 46.2278 51.0361C46.4971 50.7669 46.8621 50.6156 47.2428 50.6153H47.2423ZM42.3085 55.3139C42.6276 55.3139 42.9395 55.4085 43.2048 55.5858C43.4701 55.7631 43.6769 56.015 43.799 56.3098C43.9211 56.6046 43.953 56.929 43.8908 57.2419C43.8285 57.5549 43.6749 57.8423 43.4492 58.068C43.2236 58.2936 42.9362 58.4472 42.6232 58.5095C42.3103 58.5717 41.9859 58.5398 41.6911 58.4177C41.3963 58.2956 41.1444 58.0888 40.9671 57.8235C40.7898 57.5582 40.6952 57.2463 40.6952 56.9272C40.6957 56.4995 40.8658 56.0894 41.1682 55.787C41.4707 55.4845 41.8808 55.3144 42.3085 55.3139ZM39.4027 47.4753C39.683 47.4753 39.957 47.5584 40.1901 47.7141C40.4233 47.8698 40.6049 48.0912 40.7122 48.3502C40.8195 48.6091 40.8476 48.8941 40.7929 49.1691C40.7383 49.444 40.6033 49.6966 40.4051 49.8948C40.2069 50.0931 39.9543 50.2281 39.6794 50.2828C39.4044 50.3375 39.1194 50.3094 38.8604 50.2021C38.6014 50.0949 38.3801 49.9132 38.2243 49.6801C38.0686 49.447 37.9854 49.173 37.9854 48.8927C37.9859 48.5169 38.1353 48.1567 38.401 47.891C38.6667 47.6252 39.0269 47.4758 39.4027 47.4753ZM36.5841 52.3061C36.7753 52.3061 36.9622 52.3628 37.1212 52.469C37.2802 52.5753 37.4041 52.7263 37.4772 52.9029C37.5504 53.0796 37.5695 53.274 37.5322 53.4615C37.4949 53.649 37.4028 53.8213 37.2676 53.9565C37.1324 54.0917 36.9601 54.1837 36.7726 54.221C36.5851 54.2583 36.3907 54.2391 36.214 54.166C36.0374 54.0928 35.8864 53.9688 35.7802 53.8098C35.674 53.6508 35.6173 53.4639 35.6173 53.2727C35.6176 53.0164 35.7196 52.7707 35.9008 52.5895C36.0821 52.4083 36.3278 52.3064 36.5841 52.3061Z" fill="#00730C"/>
</svg>
