<svg width="71" height="71" viewBox="0 0 71 71" fill="none" xmlns="http://www.w3.org/2000/svg">
<g clip-path="url(#clip0_3633_3289)">
<path d="M54.4372 68.312C53.9239 67.9565 52.7996 67.1935 51.2407 66.211L55.505 63.5285C55.5276 63.5142 55.5496 63.4992 55.5711 63.4833C57.1741 62.3036 58.4128 60.6967 59.1458 58.8462L61.7667 52.2349C61.8736 51.9653 61.869 51.6642 61.7539 51.3979C61.6388 51.1316 61.4226 50.922 61.153 50.8151L58.1028 49.606L61.7304 40.4551C61.864 40.5082 62.0066 40.5344 62.1503 40.5322C62.2939 40.5301 62.4357 40.4996 62.5676 40.4426C62.6995 40.3856 62.8188 40.3032 62.9188 40.2C63.0188 40.0968 63.0974 39.975 63.1503 39.8414L67.9872 27.6402C68.0941 27.3705 68.0895 27.0694 67.9744 26.8032C67.8593 26.5369 67.6432 26.3273 67.3735 26.2204L62.2896 24.205C62.02 24.0981 61.7189 24.1027 61.4526 24.2178C61.1863 24.3329 60.9767 24.5491 60.8698 24.8187L56.033 37.0201C55.9261 37.2897 55.9307 37.5908 56.0458 37.8571C56.1609 38.1233 56.377 38.333 56.6467 38.4399L53.019 47.5907L49.9687 46.3815C49.699 46.2746 49.3979 46.2792 49.1317 46.3943C48.8654 46.5094 48.6557 46.7255 48.5488 46.9952L46.0913 53.1944C45.2583 55.3087 45.1209 57.6335 45.6991 59.8312L46.1713 63.2044C40.4543 60.0237 32.8925 56.5436 26.75 56.2397V51.3401L32.7693 46.56C33.5897 46.6567 34.4151 46.705 35.2412 46.7047C35.9445 46.7054 36.6473 46.6689 37.3467 46.5953C41.3749 46.1659 44.4674 44.4844 46.2897 41.7325C50.5064 35.3648 47.7604 23.7045 47.6414 23.2112C47.5767 22.9425 47.4125 22.7083 47.1821 22.5556C46.9516 22.403 46.6719 22.3433 46.3992 22.3886C45.8987 22.4715 34.0915 24.4948 29.875 30.8625C28.0527 33.6144 27.7115 37.1179 28.8887 40.9943C29.3556 42.5098 29.9937 43.9672 30.7906 45.3382L26.75 48.547V28.5423C28.1693 27.8397 29.5041 26.9778 30.7285 25.9733C33.8502 23.3912 35.5 20.2819 35.5 16.9812C35.5 9.34381 26.7727 1.13795 26.4012 0.792459C26.1988 0.604102 25.9326 0.49939 25.6561 0.49939C25.3796 0.49939 25.1134 0.604102 24.911 0.792459C23.27 2.37343 21.7623 4.08719 20.4034 5.91627C17.3574 10.0118 15.8125 13.7347 15.8125 16.9812C15.8125 20.2819 17.4624 23.3912 20.584 25.9733C21.8084 26.9778 23.1432 27.8397 24.5625 28.5423V49.6407L20.5223 46.4327C21.3192 45.0619 21.9573 43.6047 22.4242 42.0893C23.6014 38.2129 23.2603 34.7094 21.4379 31.9575C17.2214 25.5898 5.41449 23.5664 4.91369 23.4835C4.641 23.4383 4.36131 23.498 4.13085 23.6506C3.90039 23.8032 3.73626 24.0375 3.67146 24.3062C3.55252 24.7995 0.806524 36.4598 5.0232 42.8275C6.84553 45.5793 9.93797 47.261 13.9663 47.6903C14.6657 47.7639 15.3685 47.8004 16.0717 47.7996C16.8978 47.7999 17.7232 47.7516 18.5436 47.655L24.5625 52.4339V56.2774C24.5264 56.2807 24.4896 56.2825 24.4531 56.2862C19.7158 56.7599 14.6557 58.9932 9.41406 62.9254C7.23712 64.5546 5.19445 66.3559 3.30574 68.312H0.5V70.4995H70.5V68.312H54.4372ZM43.0888 35.7271L39.1527 35.484C38.9372 35.4707 38.7304 35.3939 38.5585 35.2633C38.3866 35.1326 38.2571 34.954 38.1865 34.75L36.897 31.0232L38.9642 30.3078L40.0153 33.3456L43.2235 33.5437L43.0888 35.7271ZM35.4651 33.188L36.7391 37.6587L41.3875 37.6874L41.3738 39.8749L35.9051 39.8411C35.6684 39.8397 35.4386 39.7615 35.2501 39.6183C35.0617 39.4751 34.9247 39.2747 34.8599 39.047L33.3612 33.7878L35.4651 33.188ZM8.09582 34.6372L11.3041 34.4391L12.3552 31.4015L14.4223 32.1166L13.1328 35.8437C13.0622 36.0478 12.9328 36.2264 12.7608 36.357C12.5889 36.4876 12.3821 36.5645 12.1666 36.5778L8.23049 36.8209L8.09582 34.6372ZM9.94549 40.9682L9.93182 38.7807L14.5803 38.752L15.8542 34.2813L17.958 34.8808L16.4592 40.1401C16.3943 40.3677 16.2574 40.5682 16.0689 40.7114C15.8805 40.8545 15.6506 40.9327 15.414 40.9342L9.94549 40.9682ZM21.9375 16.0307L25.6562 18.8198L29.375 16.0307L30.6875 17.7807L26.3125 21.062C26.1232 21.204 25.8929 21.2807 25.6562 21.2807C25.4196 21.2807 25.1893 21.204 25 21.062L20.625 17.7807L21.9375 16.0307ZM21.7684 13.4407L22.9818 11.6207L25.6562 13.4037L28.3309 11.6206L29.5443 13.4407L26.263 15.6282C26.0833 15.748 25.8722 15.8119 25.6563 15.8119C25.4404 15.8119 25.2293 15.748 25.0496 15.6282L21.7684 13.4407ZM13.625 66.1245C13.625 65.1092 14.0283 64.1355 14.7462 63.4176C15.4641 62.6997 16.4378 62.2963 17.4531 62.2963C18.4684 62.2963 19.4421 62.6997 20.16 63.4176C20.8779 64.1355 21.2812 65.1092 21.2812 66.1245H19.0938C19.0938 65.6893 18.9209 65.272 18.6132 64.9644C18.3055 64.6567 17.8882 64.4838 17.4531 64.4838C17.018 64.4838 16.6007 64.6567 16.293 64.9644C15.9854 65.272 15.8125 65.6893 15.8125 66.1245H13.625ZM22.375 64.4838C22.375 63.4686 22.7783 62.4949 23.4962 61.777C24.2141 61.059 25.1878 60.6557 26.2031 60.6557C27.2184 60.6557 28.1921 61.059 28.91 61.777C29.6279 62.4949 30.0312 63.4686 30.0312 64.4838H27.8438C27.8438 64.0487 27.6709 63.6314 27.3632 63.3237C27.0555 63.0161 26.6382 62.8432 26.2031 62.8432C25.768 62.8432 25.3507 63.0161 25.043 63.3237C24.7354 63.6314 24.5625 64.0487 24.5625 64.4838H22.375ZM37.6875 66.1245C37.6875 65.6893 37.5146 65.272 37.207 64.9644C36.8993 64.6567 36.482 64.4838 36.0469 64.4838C35.6118 64.4838 35.1945 64.6567 34.8868 64.9644C34.5791 65.272 34.4062 65.6893 34.4062 66.1245H32.2188C32.2188 65.1092 32.6221 64.1355 33.34 63.4176C34.0579 62.6997 35.0316 62.2963 36.0469 62.2963C37.0622 62.2963 38.0359 62.6997 38.7538 63.4176C39.4717 64.1355 39.875 65.1092 39.875 66.1245H37.6875ZM58.6801 39.2456L59.6969 39.6486L56.0692 48.7995L55.0524 48.3964L58.6801 39.2456ZM48.1254 54.0003L50.1799 48.8178L59.3301 52.4453L57.1122 58.0399C56.5351 59.4969 55.563 60.764 54.3051 61.6987L49.2223 64.8962C49.2029 64.9084 49.184 64.9215 49.1655 64.9349C48.9721 64.8189 48.7737 64.7011 48.5729 64.5823L47.8558 59.4604C47.8496 59.4145 47.8405 59.3692 47.8285 59.3245C47.3525 57.564 47.4564 55.697 48.1247 54.0003H48.1254Z" fill="white"/>
<path d="M47.5313 16.9063C48.3965 16.9063 49.2424 16.6497 49.9619 16.1689C50.6813 15.6882 51.2421 15.0049 51.5732 14.2055C51.9044 13.4061 51.991 12.5264 51.8222 11.6777C51.6534 10.8291 51.2367 10.0495 50.6248 9.43766C50.013 8.8258 49.2334 8.40913 48.3848 8.24032C47.5361 8.07151 46.6564 8.15815 45.857 8.48928C45.0576 8.82041 44.3743 9.38117 43.8936 10.1006C43.4128 10.8201 43.1562 11.666 43.1562 12.5313C43.1576 13.6912 43.6189 14.8032 44.4391 15.6234C45.2593 16.4436 46.3713 16.905 47.5313 16.9063Z" fill="white"/>
<path d="M2.09042 12.0345C2.2292 12.1733 2.40277 12.2722 2.59292 12.3208C2.78308 12.3694 2.98281 12.366 3.17118 12.3108L6.60364 11.3054L10.0362 12.3108C10.2246 12.366 10.4243 12.3694 10.6145 12.3208C10.8047 12.2722 10.9783 12.1733 11.117 12.0345C11.2558 11.8958 11.3547 11.7222 11.4033 11.532C11.4519 11.3418 11.4485 11.1421 11.3933 10.9537L10.388 7.52114L11.3934 4.08854C11.4486 3.90017 11.4521 3.70043 11.4035 3.51026C11.3549 3.3201 11.256 3.14652 11.1172 3.00773C10.9784 2.86894 10.8048 2.77006 10.6146 2.72145C10.4245 2.67284 10.2247 2.6763 10.0364 2.73147L6.60378 3.7369L3.17118 2.7316C2.98281 2.67644 2.78307 2.67298 2.59291 2.72158C2.40274 2.77019 2.22916 2.86908 2.09037 3.00787C1.95158 3.14666 1.8527 3.32024 1.80409 3.5104C1.75548 3.70057 1.75894 3.90031 1.81411 4.08867L2.81954 7.52127L1.81411 10.9537C1.75896 11.1421 1.75551 11.3418 1.80412 11.532C1.85274 11.7221 1.95163 11.8957 2.09042 12.0345Z" fill="white"/>
<path d="M38.7812 50.8125H36.5938V53H38.7812V50.8125Z" fill="white"/>
</g>
<defs>
<clipPath id="clip0_3633_3289">
<rect width="70" height="70" fill="white" transform="translate(0.5 0.5)"/>
</clipPath>
</defs>
</svg>
