<svg width="69" height="69" viewBox="0 0 69 69" fill="none" xmlns="http://www.w3.org/2000/svg">
<path d="M65.582 17.5837V8.99345C65.583 7.24692 64.8994 5.56973 63.6781 4.32221L61.3774 2.0195C60.5762 1.19604 59.4766 0.73117 58.3282 0.730469H58.3183C57.1663 0.730118 56.0625 1.19405 55.2562 2.01751L51.8031 5.50951L50.0696 3.99296C49.6806 3.64431 49.1764 3.45245 48.6542 3.4542C48.0816 3.45724 47.5332 3.68675 47.1291 4.09269L46.9228 4.29917L46.231 3.60082C44.8637 2.21405 42.9982 1.43338 41.0516 1.43338C39.105 1.43338 37.2394 2.21405 35.8721 3.60082C33.0231 6.49864 33.0231 11.148 35.8721 14.0457L36.5799 14.7621L36.5429 14.799C35.6955 15.6633 35.6955 17.0476 36.5429 17.9119L53.6781 35.241C53.8843 35.4512 54.1663 35.5696 54.4607 35.5696C54.755 35.5696 55.037 35.4512 55.2432 35.241L68.5506 21.7919C68.7706 21.5656 68.8893 21.2595 68.8796 20.9439C68.8705 20.6287 68.7293 20.3319 68.4908 20.1258L65.582 17.5837ZM37.9783 13.3385L37.2866 12.6401C35.203 10.5218 35.203 7.12205 37.2866 5.00372C38.2794 3.99589 39.6344 3.42848 41.0486 3.42848C42.4626 3.42848 43.8178 3.99589 44.8106 5.00372L45.5223 5.71903L37.9783 13.3385ZM63.5884 15.8277L53.3092 6.82637L56.6735 3.42415C57.1054 2.97869 57.699 2.72685 58.3193 2.7258C58.9368 2.72826 59.5273 2.9801 59.957 3.42415L62.2616 5.73388C63.1117 6.60527 63.5865 7.77551 63.5844 8.99333L63.5884 15.8277Z" fill="#00730C"/>
<path fill-rule="evenodd" clip-rule="evenodd" d="M33.949 27.6263V31.7598H48.7876L42.9852 25.9052L33.949 27.6263Z" fill="#00730C"/>
<path fill-rule="evenodd" clip-rule="evenodd" d="M26.1256 24.197V36.2777C26.1163 36.5584 26.2851 36.8145 26.5467 36.9166C26.7917 37.026 27.079 36.9673 27.2612 36.7705L31.3412 32.5419V27.1517L27.3486 23.7928C27.2059 23.6267 27.0015 23.5263 26.7828 23.515C26.7017 23.5152 26.6215 23.5315 26.5467 23.5633C26.287 23.6648 26.1186 23.9183 26.1256 24.197Z" fill="#00730C"/>
<path fill-rule="evenodd" clip-rule="evenodd" d="M19.6059 34.3676C17.4455 34.3676 15.6941 36.119 15.6941 38.2793V40.8872C15.6941 41.6074 16.278 42.1911 16.998 42.1911C17.7181 42.1911 18.3018 41.6074 18.3018 40.8872V38.2793C18.3018 37.5592 18.8857 36.9755 19.6057 36.9755C20.3259 36.9755 20.9096 36.3917 20.9096 35.6716C20.9096 34.9514 20.326 34.3676 19.6059 34.3676Z" fill="#00730C"/>
<path fill-rule="evenodd" clip-rule="evenodd" d="M19.6059 29.152C14.5677 29.1584 10.4849 33.2411 10.4785 38.2794V40.8873C10.4785 41.6074 11.0622 42.1911 11.7824 42.1911C12.5025 42.1911 13.0863 41.6074 13.0863 40.8873V38.2794C13.0905 34.6806 16.0069 31.7642 19.6059 31.7597C20.3261 31.7597 20.9098 31.176 20.9098 30.4558C20.9098 29.7357 20.3261 29.152 19.6059 29.152Z" fill="#00730C"/>
<path fill-rule="evenodd" clip-rule="evenodd" d="M19.6059 23.9363C11.6882 23.9456 5.27202 30.3618 5.2627 38.2795V40.8872C5.2627 41.6074 5.84656 42.1911 6.56656 42.1911C7.28657 42.1911 7.87044 41.6074 7.87044 40.8872V38.2793C7.87762 31.8011 13.1275 26.5512 19.6057 26.544C20.3259 26.544 20.9096 25.9602 20.9096 25.2401C20.9097 24.52 20.326 23.9363 19.6059 23.9363Z" fill="#00730C"/>
<path fill-rule="evenodd" clip-rule="evenodd" d="M44.3803 66.9657C44.3803 66.2455 43.7966 65.6618 43.0764 65.6618H23.5176V62.2063C23.7742 61.8829 24.0485 61.5739 24.3391 61.2805C24.6141 60.9859 24.9057 60.7072 25.2127 60.446H32.645C37.6836 60.4402 41.7668 56.3572 41.7724 51.3186V46.2463C39.3648 47.857 36.5326 48.7149 33.6359 48.7107C29.1616 48.7137 25.3276 51.9115 24.5215 56.3126L24.2477 57.8511C23.5198 58.4208 22.8395 59.0487 22.2136 59.7288C21.5877 59.0487 20.9074 58.4208 20.1795 57.8511L19.9057 56.3126C19.0996 51.9114 15.2656 48.7137 10.7912 48.7107C7.89455 48.7149 5.06234 47.857 2.65477 46.2463V51.3186C2.66058 56.3572 6.74363 60.4404 11.7822 60.446H19.2145C19.8312 60.9807 20.3986 61.5699 20.9096 62.2063V65.6617H1.35075C0.630584 65.6617 0.046875 66.2455 0.046875 66.9655C0.046875 67.6856 0.630736 68.2696 1.3509 68.2696H43.0764C43.7966 68.2696 44.3803 67.6859 44.3803 66.9657Z" fill="#00730C"/>
</svg>
